<svg xmlns="http://www.w3.org/2000/svg" xmlns:xlink="http://www.w3.org/1999/xlink" viewBox="0 0 490.7 490.7"><defs><style>.a{fill:url(#a);}</style><linearGradient id="a" x1="-44.9" y1="412.93" x2="535.6" y2="77.77" gradientUnits="userSpaceOnUse"><stop offset="0" stop-color="#d7b86d"/><stop offset="0.6" stop-color="#fff6de"/><stop offset="1" stop-color="#d4bd85"/></linearGradient></defs><title>spareparts_pattern</title><path class="a" d="M490.7,39.16V0H451.53V25.34h-19V0H424.7V25.34h-19V0H329.36V4.9h34.28V31.37H335.4V58.16h-25V0h-7.86V58.16h-25V31.37H249.25V4.9h34.27V0H207.18V25.34h-19V0h-7.84V25.34h-19V0H85V4.9h34.28V31.37H91.05V58.16H66V0H58.17V58.16h-25V31.37H4.9V4.9H39.17V0H0V39.16H25.34v19H0V66H25.34V85H0v76.33H4.9V127.06H31.38V155.3H58.17v25H0v7.84H58.17v25H31.38v28.23H4.9V207.17H0v76.34H25.34v19H0v7.85H25.34v19H0v76.34H4.9V371.41H31.38v28.24H58.17v25H0v7.84H58.17v25H31.38V485.8H4.9V451.52H0V490.7H39.17V465.36h19V490.7H66V465.36H85V490.7h76.34v-4.9H127.08V459.31h28.24V432.54h25V490.7h7.84V432.53h25v26.78h28.24V485.8H207.18v4.9h76.34V465.36h19V490.7h7.86V465.36h19V490.7H405.7v-4.9H371.43V459.31h28.24V432.54h25V490.7h7.84V432.53h25v26.78H485.8V485.8H451.53v4.9H490.7V451.52H465.36v-19H490.7v-7.84H465.36v-19H490.7V329.35h-4.9v34.27H459.32V335.39H432.54v-25H490.7v-7.85H432.54v-25h26.78V249.24H485.8v34.27h4.9V207.17H465.36v-19H490.7v-7.84H465.36v-19H490.7V85h-4.9v34.26H459.32V91H432.54V66H490.7V58.16H432.54v-25h26.78V4.9H485.8V39.16ZM485.8,215v26.48H451.53v28.24h-19V188.18h25V215Zm0-87.91v26.49H457.57v26.79h-25V98.83h19v28.23Zm0,244.35V397.9H457.57v26.79h-25V343.18h19v28.23ZM4.9,275.72V249.24H39.17V221h19v81.5h-25V275.72Zm0,87.9V337.15H33.14V310.36h25v81.5h-19V363.62Zm0-244.35V92.8H33.14V66h25v81.5h-19V119.27ZM127.08,39.16V4.9h26.48V33.13h26.79v25H98.84v-19Zm26.48,296.23v28.23H127.08V329.35H98.84v-19h81.51v25ZM66,399.65H92.81V371.41h26.48v34.28h28.23v19H66Zm53.27-62.5v26.47H85v28.24H66v-81.5h25v26.79ZM92.81,155.3V127.06h26.48v34.28h28.23v19H66v-25Zm34.27,86.15V215h28.24V188.19h25v81.5h-19V241.45ZM98.84,283.51h28.24V249.24h26.48v28.24h26.79v25H98.84Zm48.68-76.34H119.29v34.28H92.81V213.22H66v-25h81.5Zm-28.23,42.07v26.48H91.05v26.79H66V221H85v28.23Zm7.79-95.69V127.06h34.27V98.83h19v81.5h-25V153.55ZM153.56,91v28.23H127.08V85H98.84V66h81.51V91ZM119.29,92.8v26.47H85v28.24H66V66h25V92.8Zm7.79,305.1V371.41h34.27V343.18h19v81.5h-25V397.9Zm-7.79,53.62V485.8H92.81V457.57H66v-25h81.5v19Zm101.72,0v-19h81.5v25H275.73V485.8H249.25V451.52ZM269.69,39.16v19h-81.5v-25H215V4.9h26.49V39.16Zm-20.44,80.11V92.8h28.23V66h25v81.5h-19V119.27ZM188.19,335.39v-25h81.5v19H241.46v34.27H215V335.39ZM241.46,85v34.26H215V91H188.19V66h81.5V85Zm0,42.05v26.49H213.22v26.79h-25V98.83h19v28.23Zm34.27,86.16v28.23H249.25V207.17H221v-19h81.5v25ZM215,277.48V249.24h26.49v34.27h28.23v19h-81.5v-25ZM241.46,215v26.48H207.18v28.24h-19V188.18h25V215Zm7.79,148.65V337.15h28.23V310.36h25v81.5h-19V363.62Zm0,42.07V371.41h26.48v28.24h26.78v25H221v-19Zm0-130V249.24h34.27V221h19v81.5h-25V275.72ZM221,161.34h28.24V127.06h26.48V155.3h26.78v25H221ZM188.19,343.18h19v28.23h34.28V397.9H213.22v26.79h-25Zm183.24-304V4.9h26.48V33.13H424.7v25H343.19v-19Zm26.48,296.23v28.23H371.43V329.35H343.19v-19H424.7v25Zm-87.54,64.26h26.78V371.41h26.49v34.28h28.23v19h-81.5Zm53.27-62.5v26.47H329.36v28.24h-19v-81.5h25v26.79ZM337.15,155.3V127.06h26.49v34.28h28.23v19h-81.5v-25Zm34.28,86.15V215h28.24V188.19h25v81.5h-19V241.45Zm-28.24,42.06h28.24V249.24h26.48v28.24H424.7v25H343.19Zm48.68-76.34H363.64v34.28H337.15V213.22H310.37v-25h81.5Zm-28.23,42.07v26.48H335.4v26.79h-25V221h19v28.23Zm7.79-95.69V127.06H405.7V98.83h19v81.5h-25V153.55ZM397.91,91v28.23H371.43V85H343.19V66H424.7V91ZM363.64,92.8v26.47H329.36v28.24h-19V66h25V92.8Zm7.79,305.1V371.41H405.7V343.18h19v81.5h-25V397.9Zm-7.79,53.62V485.8H337.15V457.57H310.37v-25h81.5v19Z"/></svg>