<svg xmlns="http://www.w3.org/2000/svg" viewBox="0 0 488.7 488.7"><defs><linearGradient id="a" x1="-35" x2="524.6" y1="404.9" y2="81.9" gradientUnits="userSpaceOnUse"><stop offset="0" stop-color="#d7b86d"/><stop offset=".6" stop-color="#fff6de"/><stop offset="1" stop-color="#d4bd85"/></linearGradient></defs><path fill="url(#a)" d="M488.7 139.7v-120h-22.6V0H346v19.7h-43V0h-120v19.7h-42.8V0h-120v19.7H0v120h20.5V163h-.2v19.7H0v120h20.5v23.2h-.2v19.7H0v120h20.5v23.2h119.7v-23.2h43.2v23.2H303v-23.2h43.1v23.2H466v-23.2h22.7v-120h-22.6v-19.7h-.1v-23.2h22.7v-120h-22.6V163h-.1v-23.2zM466.1 25h20.1v24.7h-20.1zm0 29.9h20.1v23.1h-20.1zm0 28.3h20.1v22.2h-20.1zm0 27.4h20.1v23.8h-20.1zM20.3 134.3H2.8v-23.8h17.5zm0-29H2.8V83.1h17.5zm0-27.4H2.8V54.8h17.5zm0-28.3H2.8V25h17.5zm0 247.6H2.8v-23.8h17.5zm0-29H2.8V246h17.5zm0-27.4H2.8v-23.1h17.5zm0-28.3H2.8v-24.7h17.5zm0 247.7H2.8v-23.9h17.5zm0-29H2.8v-22.3h17.5zm0-27.5H2.8v-23h17.5zm0-28.3H2.8v-24.7h17.5zm445.8-24.7h20.1v24.7h-20.1zm0 30h20.1v23h-20.1zm0 28.2h20.1v22.3h-20.1zm0 27.4h20.1v23.9h-20.1zm0-248.5h20.1v24.7h-20.1zm0 30h20.1v23h-20.1zm0 28.2h20.1v22.3h-20.1zm0 27.4h20.1v23.9h-20.1zm-29.7-271h23.8V20h-23.8zm-27.4.2v-.1h22.2V20H409zm0 22.6h52v52.7h-21.4V48.4H409zm0 109.8v-22.7h30.6V83.1H461v52zm51.2 5.2v20.2h-23.8v-20.2zm-51.2 0h22.2v20.2H409zm-28-33V53.5h53.5V107zm-.2-104.8h23V20h-23zm-29.5 0h24.4V20h-24.4zm0 22.8h52.6v23.2h-28v29.5h-24.6zm0 109.6V83h24.6v29.2h28v22.8h-52.6zm52.6 5.4v20.2h-23v-20.2zm-52.6 0h24.4v20.2h-24.4zM328.6 25h17.5v24.7h-17.5zm0 29.9h17.5v23.1h-17.5zm0 28.3h17.5v22.2h-17.5zm0 27.4h17.5v23.8h-17.5zM303.2 25h20.1v24.7h-20.1zm0 29.9h20.1v23.1h-20.1zm0 28.3h20.1v22.2h-20.1zm0 27.4h20.1v23.8h-20.1zm-29.7-108h23.8V20h-23.8zm-27.4 0h22.3V20h-22.2zm0 22.7H298v52.7h-21.2V48.4H246zm51.2 303v17.6h-23.8v-17.6zm-29 0v17.6h-22.2v-17.6zM241 351v23.2h-28v29.5h-24.6V351zm-52.6-5.2v-17.6h24.4v17.6zm29.8 33.6h53.4v53.5h-53.5zm22.8-51v17.4h-23v-17.6h23zm0-140.3v23.1h-28v29.6h-24.6V188zm-52.6-5.2v-17.6h24.4V183zm57.8 115v-22.7h30.6V246H298v52zm51.1 5.2v20.2h-23.8v-20.2zm-29 0v20.2h-22.2v-20.2zm3.3-33.1H218v-53.5h53.5zM241 165.5v17.4h-23v-17.6h23zM213 246v29.2h28V298h-52.6v-52zm28 57.2v20.1h-23v-20.2zm-28.2 0v20.1h-24.4v-20.2zm85.2-62.4h-21.2v-29.5H246V188H298zm-51.9-57.9v-17.6h22.2V183zm27.4 0v-17.6h23.8V183zM218 160.4v-20.2h23v20.2zm28.2-25.3v-22.8h30.6V83.1H298v52zm51.2 5.1v20.2h-23.8v-20.2zm-25.7-33H218V53.5h53.5zm-25.5 33h22.2v20.2h-22.2zM218 2.4h23V20h-23zm-29.5 0h24.4V20h-24.4zm0 22.8H241v23.2h-28v29.5h-24.6zm0 109.6V83H213v29.2h28v22.8h-52.6zm0 5.4h24.4v20.2h-24.4zM165.7 25h17.5v24.7h-17.5zm0 29.9h17.5v23.1h-17.5zm0 28.3h17.5v22.2h-17.5zm0 27.4h17.5v23.8h-17.5zM140.3 25h20.1v24.7h-20.1zm0 29.9h20.1v23.1h-20.1zm0 28.3h20.1v22.2h-20.1zm0 27.4h20.1v23.8h-20.1zm-29.7-108h23.8V20h-23.8zm-27.3 0h22.2V20H83.3zm0 22.7H135v52.7H114V48.4H83.3zm0 109.9v-22.8h30.6V83.1H135v52zm51.1 5.1v20.2h-23.8v-20.2zm-51.1 0h22.2v20.2H83.3zm-28-33V53.5h53.4V107zM55 2.3h23V20H55zm-29.5 0h24.4V20H25.5zm0 22.8H78v23.2H50v29.5H25.5zm0 109.6V83H50v29.2h28v22.8H25.5zm52.6 5.4v20.2H55v-20.2zm-52.6 0h24.4v20.2H25.5zm114.7-.5h43.1V163h-.1v19.7h-43V163zm25.5 128.5V246h17.5v22.3zm17.5 5.2v23.8h-17.5v-23.8zm-17.5-32.6v-23.1h17.5v23zm0-28.3v-24.7h17.5v24.7zm-25.4 55.7V246h20.1v22.3zm20.1 5.2v23.8h-20.1v-23.8zm-20.1-32.6v-23.1h20.1v23zm0-28.3v-24.7h20.1v24.7zm-57 85.5v-22.8h30.6V246H135v52zm51.1 5.2v20.1h-23.8v-20.2zM25.5 298v-52h24.6v29.2h28V298zm52.6 5.2v20.1H55v-20.2zm-28.2 0v20.1H25.5v-20.2zm28.2-115v23.2H50v29.5H25.5V188zm-52.6-5.3v-17.6h24.4V183zm29.5 0v-17.6h23V183zm.2 87.1v-53.5h53.5V270zm28 33.1h22.2v20.2H83.3zm30.6-62.3v-29.5H83.3V188H135v52.7zm-30.6-58v-17.5h22.2V183zm27.4 0v-17.5h23.8V183zm23.8 145.4v17.6h-23.8v-17.6zm-29 0v17.6H83.3v-17.6zM78.2 351v23.2H50v29.5H25.5V351zm-52.6-5.2v-17.6h24.4v17.6zm29.7 33.6h53.5v53.5H55.2zm22.9-51v17.4H55v-17.6h23zM49.9 486.2H25.5V466h24.4zm28.2 0H55V466h23zm0-25.3H25.5v-52h24.6V438h28zm27.4 25.3H83.3V466h22.2zm29 0h-23.9V466h23.8zm.7-25.6v.3h-52V438H114V409H135zm0-57h-21.3v-29.4H83.3V351H135zm25.3 56.5h-20.2v-23.8h20.1zm0-29h-20.2V409h20.1zm0-27.4h-20.2v-23.1h20.1zm0-28.3h-20.2v-24.7h20.1zm22.8 84.7h-17.6v-23.8h17.5zm0-29h-17.6V409h17.5zm0-27.4h-17.6v-23h17.5zm0-28.3h-17.6v-24.7h17.5zm0-49.6v19.7h-43v-19.7h-.1v-23.2h43.2v23.2zm29.5 160.4h-24.4V466h24.4zm28.2 0h-23V466h23zm0-25.3h-52.6v-52H213V438h28zm27.4 25.3h-22.2V466h22.2zm29 0h-23.9V466h23.8zm.7-25.6v.3h-52V438h30.7V409H298zm0-56.9h-21.3v-29.5H246V351H298zm25.3 56.5h-20.2v-23.9h20.1zm0-29h-20.2v-22.3h20.1zm0-27.5h-20.2v-23h20.1zm0-28.3h-20.2v-24.7h20.1zm22.8 84.8h-17.6v-23.9h17.5zm0-29h-17.6v-22.3h17.5zm0-27.5h-17.6v-23h17.5zm0-28.3h-17.6v-24.7h17.5zm29.5 110.8h-24.4V466h24.4zm28.2 0h-23V466h23zm0-25.3h-52.6v-52h24.6v29.2h28zm0-109.9v23.2h-28v29.5h-24.6V351zm-52.6-5.2v-17.6h24.4v17.6zm52.6-17.4v17.4h-23v-17.6h23zm30.6 51V433H381v-53.6zm-3.3 106.8h-22.1V466h22.1zm29 0h-23.8V466h23.8zm.7-25.6v.3h-51.8V438h30.5V409H461zm0-57h-21.3v-29.4H409V351h52zM409 345.9v-17.6h22.2v17.6zm27.4 0v-17.6h23.8v17.6zm-90.3-20v19.7h-43v-42.9h43.1v23.2zm-22.8-108.1v23h-20.1v-23zm-20.1-5.2v-24.7h20.1v24.7zm20.1 33.5v22.3h-20.1V246zm0 27.4v23.9h-20.1v-23.9zm22.8-55.7v23.1h-17.5v-23.1zm-17.5-5.2v-24.7h17.5v24.7zm17.5 33.5v22.3h-17.5V246zm0 27.4v23.9h-17.5v-23.9zm57.8-85.3v23.2h-28v29.5h-24.6v-52.7zm-52.6-5.2v-17.6h24.4V183zm109.6 5.2v52.7h-21.3v-29.5H409V188zm-51.8-5.2v-17.6h22.1V183zm27.3 0v-17.6h23.8V183zM409.1 298v-22.8h30.5V246H461v52zm51.1 5.2v20.1h-23.8v-20.2zm-29 0v20.1h-22.1v-20.2zm3.3-86.7V270H381v-53.5zm-30.6-51V183h-23v-17.6h23zm-28 80.5v29.2h28V298h-52.6v-52zm28 57.2v20.1h-23v-20.2zm-28.2 0v20.1h-24.4v-20.2zM346 162.9v19.7h-43v-42.9h43.1V163z"/></svg>