<svg xmlns="http://www.w3.org/2000/svg" viewBox="0 0 488.7 488.7"><defs><linearGradient id="a" x1="-41.9" x2="532.1" y1="410.2" y2="78.8" gradientUnits="userSpaceOnUse"><stop offset="0" stop-color="#d7b86d"/><stop offset=".6" stop-color="#fff6de"/><stop offset="1" stop-color="#d4bd85"/></linearGradient></defs><path fill="url(#a)" d="M485 488.7l3.7-3.7v-4.7l-8.4 8.4zM450.7 0l-5.2 5.3-5.3-5.3h-14.8l-26 26-7.3-7.4L410.7 0H406l-16.2 16.2-11-11-11 11L351.6 0H347l18.6 18.6-7.4 7.3L332.3 0h-14.8L312 5.3 306.8 0H292l-25.9 26-7.3-7.4L277.3 0h-4.7l-16.2 16.2-11-11-11 11L218.2 0h-4.7l18.6 18.6-7.3 7.3-26-25.9H184l-5.3 5.3-5.2-5.3h-15l-25.8 26-7.4-7.4L144 0h-4.7L123 16.2l-11-11-11 11L84.8 0h-4.7l18.6 18.6-7.3 7.3L65.4 0H50.7l-5.3 5.3L40.1 0H25L0 25.2V38l6.3 6.3L0 50.6v12.7l27 27-7.3 7.4L0 78v4.7L17.3 100l-11 11 11 11L0 139.2v4.7l19.6-19.6 7.4 7.3-27 27v12.8l6.3 6.3L0 184v12.8l27 27-7.4 7.2L0 211.4v4.7l17.3 17.3-11 11 11 11L0 272.6v4.7l19.6-19.6L27 265 0 292v12.8l6.3 6.2-6.3 6.4V330l27 27-7.3 7.3L0 344.8v4.7l17.3 17.3-11 11 11 11L0 406v4.7l19.6-19.6 7.4 7.3-27 27v12.8l6.3 6.3-6.3 6.3v12.7l25.2 25.2H40l5.2-5.3 5.3 5.3h14.9l25.9-26 7.3 7.4-18.6 18.6h4.7l16.3-16.2 11 11 11-11 16.2 16.2h4.7l-18.6-18.6 7.3-7.3 26 25.9h14.8l5.3-5.3 5.2 5.3h14.9l25.9-26 7.3 7.4-18.6 18.6h4.7l16.3-16.2 11 11 11-11 16.1 16.2h4.7l-18.6-18.6 7.4-7.3 25.9 25.9h14.9l5.2-5.3 5.3 5.3h14.9l25.9-26 7.3 7.4-18.6 18.6h4.7l16.2-16.2 11 11 11-11 16.2 16.2h4.7l-18.6-18.6 7.3-7.3 26 25.9h14.8l5.3-5.3 5.3 5.3h14.8l23.1-23v-17l-4.2-4.3 4.2-4.2v-17L464 398.3l7.3-7.3 17.5 17.5v-4.7l-15.2-15.1 11-11-11-11 15.2-15.2v-4.7l-17.5 17.5-7.4-7.3 24.9-24.8v-17l-4.2-4.2 4.2-4.2v-17L463.9 265l7.3-7.3 17.5 17.5v-4.7l-15.2-15.2 11-11-11-11 15.2-15.2v-4.6L471.2 231l-7.3-7.3 24.8-24.9v-17l-4.2-4.2 4.2-4.2v-17l-24.8-24.9 7.3-7.3 17.5 17.5V137l-15.2-15.2 11-11-11-11 15.2-15v-4.7l-17.5 17.5-7.3-7.3 24.8-24.9v-17l-4.2-4.2 4.2-4.2V23l-23-23zm-5.2 16.6l27.7 27.7L445.5 72l-27.7-27.7zm-66.7 418l-6 6-9-8.9 7.3-7.3 7.7 7.7 7.7-7.7 7.3 7.3-9 9zm2.3 9.8l-2.3 2.3-2.3-2.3 2.3-2.3zm-135.7-9.8l-6 6-9-8.9 7.4-7.3 7.6 7.7 7.7-7.7 7.3 7.3-9 9zm2.3 9.8l-2.3 2.3-2.3-2.3 2.3-2.3zM112 434.6l-6 6-9-8.9 7.3-7.3 7.7 7.7 7.6-7.7 7.4 7.3-9 9zm2.3 9.8l-2.3 2.3-2.3-2.3 2.3-2.3zM112 54.1l6-6.1 9 9-7.3 7.3-7.7-7.7-7.7 7.7L97 57l9-9zm-2.3-9.8L112 42l2.3 2.3-2.3 2.3zM245.4 54l6-6.1 9 9-7.3 7.3-7.7-7.6-7.7 7.6-7.3-7.3 9-9zm-2.3-9.8l2.3-2.3 2.3 2.3-2.3 2.3zM378.8 54l6-6.1 9 9-7.3 7.3-7.7-7.6-7.7 7.6-7.3-7.3 9-9zm-2.3-9.8l2.3-2.3 2.3 2.3-2.3 2.3zm65.2 72.7l-9 9-7.2-7.3 7.6-7.7-7.6-7.6 7.3-7.4 9 9-6.1 6zm0 133.4l-9 9-7.2-7.4 7.6-7.7-7.6-7.6 7.3-7.3 9 8.9-6.1 6zm0 133.4l-9 8.9-7.2-7.3 7.6-7.7-7.6-7.6 7.3-7.4 9 9-6.1 6zm-24.2 4.9l-27.7 27.7-11-11-11 11-27.6-27.7 11-11-11-11 27.6-27.7 11 11 11-11 27.7 27.7-11 11zM384 422l-5.3 5.3-5.3-5.3 5.3-5.3zm-72-54.1l-9-8.9 9-9 8.9 9zm2.3 9.8L312 380l-2.3-2.3 2.3-2.3zm-6 6.1l-9 9-7.3-7.4 7.6-7.7-7.6-7.6 7.3-7.4 9 9-6.1 6zm-24.3 4.9l-27.7 27.7-11-11-11 11-27.6-27.7 11-11-11-11 27.7-27.7 11 11 11-11 27.6 27.7-11 11zM250.7 422l-5.3 5.3-5.3-5.3 5.3-5.3zm-72-54.1l-9-8.9 9-9 9 9zm2.3 9.8l-2.3 2.3-2.3-2.3 2.3-2.3zm-6 6.1l-9 9-7.3-7.4 7.6-7.7-7.6-7.6 7.3-7.4 9 9-6.1 6zm-24.3 4.9L123 416.4l-11-11-11 11-27.6-27.7 11-11-11-11L101 339l11 11 11-11 27.7 27.7-11 11zM117.3 422l-5.3 5.3-5.3-5.3 5.3-5.3zm-68.2-50.3l8.9-9 7.3 7.4-7.6 7.6 7.6 7.7-7.3 7.3-8.9-8.9 6-6zm0-133.4l8.9-9 7.3 7.4-7.6 7.7 7.6 7.6-7.3 7.3-9-8.9 6.1-6zm0-133.4L58 96l7.3 7.3-7.6 7.7 7.6 7.7L58 126l-8.9-9 6-6zm24.3-4.9L101 72.3l11 11 11-11 27.6 27.7-11 11 11 11-27.7 27.6-11-11-11 11L73.4 122l11-11zm33.3-33.3l5.3-5.3 5.3 5.3L112 72zm72 54.1l9 9-9 8.9-8.9-9zm-2.3-9.8l2.3-2.3 2.3 2.3-2.3 2.3zm6-6l9-9 7.3 7.3-7.6 7.7 7.6 7.7-7.3 7.3-9-9 6.1-6zm24.4-5l27.6-27.6 11 11 11-11 27.7 27.6-11 11 11 11-27.7 27.7-11-11-11 11-27.7-27.7 11-11zM240 66.7l5.3-5.3 5.3 5.3-5.3 5.3zm72 54.1l9 9-9 8.9-9-9zm-2.3-9.8l2.3-2.3 2.3 2.3-2.3 2.3zm6-6l9-9 7.3 7.3-7.6 7.7 7.6 7.7-7.3 7.3-9-9 6.1-6zm24.3-5l27.7-27.6 11 11 11-11 27.6 27.6-11 11 11 11-27.6 27.7-11-11-11 11L340 122l11-11zm33.4-33.3l5.3-5.3 5.3 5.3-5.3 5.3zm46.3 57.6l7.3 7.4-27.7 27.6-7.3-7.3zm-2-13.3l5.3-5.3 5.3 5.3-5.3 5.3zm-39 212.5l-7.7 7.6-7.3-7.3 9-9 6 6.1 6-6 9 8.9-7.3 7.3zm5.3 10l-5.3 5.3-5.3-5.3 5.3-5.3zm-138.7-10l-7.6 7.6-7.4-7.3 9-9 6 6.1 6-6 9 8.9-7.3 7.3zm5.3 10l-5.3 5.3-5.3-5.3 5.3-5.3zm-138.7-10l-7.7 7.6-7.3-7.4 9-8.9 6 6 6-6 9 9-7.3 7.3zm5.3 10l-5.3 5.2-5.3-5.3 5.3-5.3zM112 165.2l7.7-7.7 7.3 7.4-9 9-6-6.2-6 6-9-8.8 7.3-7.3zm-5.3-10l5.3-5.3 5.3 5.3-5.3 5.3zm138.7 10l7.6-7.7 7.4 7.4-9 9-6-6.1-6 6-9-8.9 7.3-7.3zm-5.3-10l5.3-5.3 5.3 5.3-5.3 5.3zm138.7 10l7.6-7.7 7.4 7.4-9 8.9-6-6-6 6-9-8.9 7.3-7.3zm-5.3-10l5.3-5.3 5.3 5.3-5.3 5.3zm44 100L389.8 283l-11-11-11 11-27.7-27.7 11-11-11-11 27.7-27.7 11 11 11-11 27.6 27.7-11 11zm-38.7 45.9l-6 6-9-8.9 7.3-7.3 7.7 7.7 7.7-7.7 7.3 7.3-9 9zm2.3 9.8l-2.3 2.3-2.3-2.3 2.3-2.3zm-135.7-9.8l-6 6-9-8.9 7.4-7.3 7.6 7.7 7.7-7.7 7.3 7.3-9 9zm2.3 9.8l-2.3 2.3-2.3-2.3 2.3-2.3zM112 301.2l-6 6-9-8.9 7.3-7.3 7.7 7.7 7.6-7.7 7.4 7.3-9 9zm2.3 9.8l-2.3 2.3-2.3-2.3 2.3-2.3zm-41-77.6l27.8-27.7 11 11 11-11 27.7 27.7-11 11 11 11L123 283l-11-11-11 11-27.6-27.7 11-11zm38.7-46l6-6 9 9-7.3 7.3-7.7-7.7-7.7 7.7-7.3-7.3 9-9zm-2.3-9.8l2.3-2.2 2.3 2.2-2.3 2.3zm135.7 9.9l6-6 9 8.8-7.3 7.4-7.7-7.7-7.7 7.7-7.3-7.4 9-8.9zm-2.3-9.9l2.3-2.2 2.3 2.2-2.3 2.3zm72.8 60.7l8.9-9 7.3 7.4-7.7 7.6 7.7 7.7-7.3 7.3-9-8.9 6.1-6zm13.3 6l5.3-5.3 5.3 5.3-5.3 5.3zm8.6-13.3l-7.3-7.3L358 196l7.4 7.3zm-11.1-11.1l-9-8.9 27.8-27.7 8.9 9zm-5.7 5.7l-9 9-8.9-9 9-9zm-6.6 18.7l-2.3 2.3-2.3-2.3 2.3-2.2zm-6.1 6.1l-9 9-7.2-7.4 7.6-7.7-7.6-7.6 7.3-7.4 9 9-6.1 6zm-18.6-.8l-5.3-5.3 5.3-5.3 5.3 5.3zm7.8-29.7l-27.7-27.7 9-8.9 27.6 27.7zm-3.8 3.8l-7.3 7.3-27.7-27.7 7.4-7.3zm-9.7 31.6L256.4 283l-11-11-11 11-27.7-27.7 11-11-11-11 27.7-27.7 11 11 11-11 27.7 27.7-11 11zm-33.3 33.4l-5.3 5.3-5.3-5.3 5.3-5.3zM240 200l5.3-5.3 5.3 5.3-5.3 5.3zm-8 3.3L204.4 231l-7.3-7.3 27.7-27.7zm-49.6 35l9-9 7.2 7.3-7.6 7.7 7.7 7.7-7.4 7.3-8.9-9 6-6zm13.3 6l5.3-5.3 5.3 5.3-5.3 5.3zm-2.5-24.4l-9-8.9 27.8-27.7 8.9 9zm-5.7 5.6l-8.9 9-8.9-9 9-8.9zm-6.6 18.8l-2.3 2.3-2.3-2.3 2.3-2.2zm-6 6.1l-9 9-7.3-7.4 7.7-7.7-7.7-7.6 7.3-7.4 9 9-6.1 6zm-18.7-.8l-5.3-5.2 5.3-5.4 5.3 5.3zm7.8-29.7l-27.7-27.7 9-8.9L173 211zm-3.7 3.8L153 231l-27.7-27.7 7.3-7.3zm-43-23.7l-5.3 5.3-5.3-5.3 5.3-5.3zm0 88.7L112 294l-5.3-5.3 5.3-5.3zm8-3.3l27.6-27.7 7.3 7.3-27.7 27.7zm38.7-16.6l9 8.9-27.7 27.7-9-9zm5.7-5.7l9-9 8.9 9-9 8.9zm23.5 5.7l27.7 27.7-9 8.9-27.6-27.7zm3.8-3.8l7.3-7.3 27.7 27.7-7.3 7.3zm61.6 20.4l27.7-27.7 7.4 7.3-27.7 27.7zm38.8-16.6l9 8.9-27.7 27.7-9-9zm5.7-5.7l9-9 8.9 9-9 8.9zm23.5 5.7l27.7 27.7-9 8.9-27.6-27.7zm3.8-3.8l7.3-7.3 27.7 27.7-7.3 7.3zm43 23.7l5.3-5.3 5.3 5.3-5.3 5.3zm0-88.7l5.3-5.3 5.3 5.3-5.3 5.3zm13-2.3l-7.7-7.7-7.7 7.7-7.3-7.4 9-8.9 6 6 6-6 9 9zm-10-20l2.3-2.3 2.3 2.3-2.3 2.3zm-7.5 0l-9 8.9-9-9 9-8.9zm-23.6-5.7l-27.6-27.7 8.9-9 27.7 27.8zm-5.6 5.7L312 205.3l-27.7-27.7 27.7-27.6zm-61-5.7l-9-9 27.8-27.6 8.9 9zm-5.7 5.7l-8.9 8.9-9-9 9-8.9zm-37.5 0l-9 8.9-8.8-9 8.9-8.9zm-23.5-5.7l-27.7-27.7 8.9-9 27.7 27.8zm-5.7 5.7l-27.7 27.6-27.7-27.7 27.7-27.6zm-61-5.7l-9-9 27.8-27.6 8.9 9zm-5.7 5.7l-8.9 8.9-9-9 9-8.9zm-37.5 0l-9 8.9-8.8-9 8.9-8.9zm-3.5 25.6L71 231l-7.3-7.3L91.4 196zm-25.7 41l-5.3 5.3-5.3-5.2 5.3-5.4zm-2 13.4l27.7 27.7-7.3 7.3L63.7 265zM93.3 302l8.9 9-9 8.9-8.9-9zm28.6 9l8.9-9 8.9 9-9 8.9zm23.5 5.6l27.6 27.7-8.9 9-27.7-27.8zm5.6-5.7l27.7-27.7 27.7 27.7-27.7 27.7zm61 5.7l9 8.9-27.7 27.7-9-9zm5.7-5.7l8.9-9 9 9-9 9zm37.5 0l9-9 8.8 9-8.8 9zm23.5 5.7l27.7 27.7-9 8.9-27.6-27.7zm5.7-5.7l27.6-27.7 27.8 27.7-27.7 27.7zm61 5.7l8.9 8.9-27.7 27.7-9-9zm5.6-5.7l9-9 9 9-9 9zm37.5 0l9-9 8.9 9-8.8 9zm3.5-25.7l27.7-27.7 7.3 7.4-27.7 27.6zm25.7-41l5.3-5.3 5.3 5.3-5.3 5.3zm2-13.3L392 203.3l7.3-7.3 27.7 27.7zm-22.2-44.5l-9-8.9 9-8.9 8.9 9zm-32-34.5l-7.3 7.3-27.7-27.7 7.3-7.3zm-31-35.7l-5.3-5.3 5.3-5.3 5.3 5.3zm-26.2.7l-8.9 9-7.3-7.3 7.6-7.7-7.6-7.6 7.3-7.4 9 9-6.1 6zm-13.3-6l-5.3 5.3-5.3-5.3 5.3-5.3zm-8.6 13.3l7.3 7.3-27.6 27.7-7.4-7.3zM232 152l-7.3 7.3-27.7-27.7 7.3-7.3zm-31-35.7l-5.3-5.3 5.3-5.3 5.3 5.3zm-26.2.7l-8.9 9-7.3-7.3 7.6-7.7-7.6-7.6L166 96l9 9-6.1 6zm-13.3-6l-5.3 5.3-5.3-5.3 5.3-5.3zm-8.6 13.3l7.3 7.3-27.6 27.7-7.4-7.3zM98.7 152l-7.3 7.3-27.7-27.7 7.3-7.3zm-31-35.7l-5.3-5.3 5.3-5.3L73 111zm-7.8 19.1l27.7 27.7-9 8.9L51 144.3zm27.7 56.8L59.9 220 51 211l27.7-27.7zm-27.7 76.6l27.7 27.7-9 8.9L51 277.7zm27.7 56.8l-27.7 27.7-8.9-9 27.7-27.6zm-25.2 52.1l5.3-5.3 5.3 5.3-5.3 5.3zm8.6-13.3l-7.3-7.3 27.7-27.7 7.3 7.3zm54.3-27.7l7.4-7.3 27.7 27.7-7.4 7.3zm31 35.7l5.3 5.3-5.3 5.3-5.3-5.3zm26.2-.7l9-9 7.2 7.4-7.6 7.6 7.6 7.7-7.3 7.3-9-8.9 6.1-6zm13.3 6l5.3-5.3 5.3 5.3-5.3 5.3zm8.6-13.3l-7.3-7.3 27.7-27.7 7.3 7.3zm54.3-27.7l7.4-7.3 27.6 27.7-7.3 7.3zm31 35.7l5.3 5.3-5.3 5.3-5.3-5.3zm26.2-.7l9-9 7.2 7.4-7.6 7.6 7.6 7.7-7.3 7.3-9-8.9 6.1-6zm13.3 6l5.3-5.3 5.3 5.3-5.3 5.3zm8.6-13.3l-7.3-7.3 27.7-27.7 7.3 7.3zm54.3-27.7l7.3-7.3 27.7 27.7-7.3 7.3zm31 35.7l5.3 5.3-5.3 5.3-5.3-5.3zm7.8-19l-27.7-27.8 9-8.9 27.6 27.7zm-27.7-57l27.7-27.6 9 8.9-27.7 27.7zM431 220l-27.7-27.7 9-8.9 27.6 27.7zm-27.7-56.8l27.7-27.7 9 9L412 172zM431 86.5l-27.7-27.7 9-8.9 27.6 27.7zm-3.8 3.8l-7.3 7.3L392.1 70l7.3-7.3zM365.5 70l-27.7 27.6-7.3-7.3 27.7-27.7zm-38.8 16.5l-9-8.9L345.6 50l8.9 9zm-5.7 5.7l-9 9-8.9-9 9-9zm-23.5-5.7L269.8 59l9-9 27.6 27.7zm-3.8 3.8l-7.3 7.3L258.7 70l7.4-7.3zM232.1 70l-27.7 27.6-7.3-7.3 27.7-27.7zm-38.8 16.5l-9-8.9L212.2 50l8.9 9zm-5.7 5.7l-8.9 9-9-9 9-9zm-23.5-5.7L136.4 59l9-9L173 77.6zm-3.7 3.8l-7.4 7.3L125.3 70l7.4-7.3zM98.7 70L71 97.6l-7.3-7.3 27.7-27.7zM59.9 86.5L51 77.6 78.7 50l8.9 9zm-5.7 5.7l-8.9 9-8.9-9 9-9zm-8.9 16.5l2.3 2.3-2.3 2.3L43 111zm0 12.1l9 9-9 8.8-8.9-8.9zM73 177.7l-27.7 27.6-27.7-27.7L45.3 150zm-18.8 47.9l-8.9 9-8.9-9 9-9zM45.4 242l2.3 2.3-2.3 2.2-2.3-2.3zm0 12l9 9-9 8.9-8.9-9zM73 311l-27.7 27.7L17.6 311l27.7-27.7zm-18.8 48l-8.9 9-8.9-9 9-9zm-8.9 16.5l2.3 2.3-2.3 2.2-2.3-2.3zm0 12l9 9-9 9-8.9-9zM60 402.3l27.7 27.7-9 8.9L51 411zm3.8-3.8l7.3-7.3 27.7 27.6-7.3 7.4zm61.6 20.4L153 391l7.3 7.3-27.7 27.7zm38.8-16.6l9 8.9-27.7 27.7-9-9zm5.7-5.7l9-9 8.8 9-8.9 9zm23.5 5.7l27.7 27.7-9 8.9-27.6-27.7zm3.8-3.8l7.3-7.3 27.7 27.7-7.3 7.3zm61.6 20.4l27.7-27.7 7.3 7.3-27.6 27.7zm38.8-16.6l9 8.9-27.7 27.7-9-9zm5.7-5.7l8.9-9 8.9 9-9 9zm23.5 5.7l27.7 27.7-9 8.9-27.6-27.7zm3.8-3.8l7.3-7.3 27.7 27.7-7.3 7.3zm61.6 20.4l27.7-27.7 7.3 7.3-27.7 27.7zm38.8-16.6l9 8.9-27.8 27.7-8.9-9zm5.7-5.7l8.9-9 9 9-9 9zm8.9-16.5l-2.3-2.3 2.3-2.3 2.3 2.3zm0-12.1l-9-8.9 9-9 9 9zM417.8 311l27.7-27.7 27.7 27.7-27.7 27.7zm18.8-48l8.9-8.9 9 9-9 8.9zm8.9-16.4l-2.3-2.3 2.3-2.3 2.3 2.3zm0-12.1l-9-9 9-8.9 9 9zm-27.7-56.9l27.7-27.6 27.7 27.7-27.7 27.7zm18.8-47.9l8.9-8.9 9 9-9 8.8zm8.9-16.4l-2.3-2.3 2.3-2.3 2.3 2.3zm0-12.2l-9-8.9 9-9 9 9zM430.9 2l9 9L412 38.5l-8.9-9zm-24.4 42.3l-9 8.9-8.9-9 9-8.9zm-27.7-27.7l5.3 5.3-5.3 5.3-5.3-5.3zm-7.7 7.6l7.7 7.7 7.7-7.7 7.3 7.4-9 8.9-6-6-6 6-9-9zM360 35.3l9 9-9 8.9-9-9zM326.7 2l27.7 27.7-9 9-27.6-27.8zM312 16.6l27.7 27.7L312 72l-27.7-27.7zM297.5 2l9 9-27.8 27.6-8.9-9zm-24.4 42.3l-9 8.9-8.9-9 9-8.9zm-27.7-27.7l5.3 5.3-5.3 5.3-5.3-5.3zm-7.7 7.6l7.7 7.7 7.7-7.7 7.3 7.4-9 8.9-6-6-6 6-9-9zm-11 11.1l8.9 9-9 8.9-8.9-9zM193.2 2L221 29.7l-9 9-27.6-27.8zm-14.6 14.6l27.7 27.7L178.7 72 151 44.3zM164.1 2l9 9-27.7 27.6-9-9zm-24.4 42.3l-9 8.9-8.8-9 8.9-8.9zM112 16.6l5.3 5.3-5.3 5.3-5.3-5.3zm-7.7 7.6L112 32l7.7-7.7 7.3 7.4-9 8.9-6-6-6 6-9-9zm-11 11.1l8.9 9-9 8.9-8.9-9zM59.8 2l27.7 27.7-9 9L51 10.8zM45.3 16.6L73 44.3 45.3 72 17.6 44.3zM3 29.6L30.7 2l9 9L12 38.5zM3 59l9-9 27.7 27.7-9 9zM17.6 111l5.3-5.3 5.3 5.3-5.3 5.3zm7.7 7.7L33 111l-7.7-7.7 7.3-7.3 9 9-6.1 6 6 6-8.9 9zM3 163l27.7-27.7 9 9L12 172zm0 29.1l9-8.9L39.7 211l-9 9zm14.6 52.2L23 239l5.3 5.3-5.3 5.3zm7.7 7.6l7.7-7.7-7.7-7.6 7.4-7.3 8.9 8.9-6 6 6 6.1-9 9zM3 296.5l27.7-27.7 9 8.9L12 305.4zm0 29.1l9-8.9 27.7 27.7-9 9zm14.6 52.1l5.3-5.3 5.3 5.3L23 383zm7.7 7.7l7.7-7.7-7.7-7.6 7.4-7.4 8.9 9-6 6 6 6.1-9 9zM3 429.9l27.7-27.7 9 8.9L12 438.8zm27.7 56.8L3.1 459l8.9-9 27.7 27.8zm14.6-14.6l-27.7-27.7 27.7-27.7L73 444.4zM60 486.7l-8.9-9 27.7-27.6 8.9 8.9zm24.4-42.3l9-8.9 8.9 9-9 8.9zm27.7 27.7l-5.3-5.3 5.3-5.3 5.3 5.3zm7.7-7.6l-7.7-7.7-7.7 7.7L97 457l9-8.9 6 6 6.1-6 9 9zm11-11.1l-8.9-9 9-8.9 8.9 9zm33.4 33.3L136.4 459l9-9 27.6 27.8zm14.6-14.6L151 444.4l27.7-27.7 27.7 27.7zm14.6 14.6l-9-9 27.8-27.6 8.9 8.9zm24.4-42.3l9-8.9 8.9 9-9 8.9zm27.7 27.7l-5.3-5.3 5.3-5.3 5.3 5.3zm7.7-7.6l-7.7-7.7-7.6 7.7-7.4-7.4 9-8.9 6 6 6-6 9 9zm11-11.1l-8.9-9 9-8.9 8.9 9zm33.4 33.3L269.8 459l9-9 27.6 27.8zm14.6-14.6l-27.7-27.7 27.7-27.7 27.7 27.7zm14.6 14.6l-9-9 27.8-27.6 8.9 9zm24.4-42.3l9-8.9 8.9 9-9 8.9zm27.7 27.7l-5.3-5.3 5.3-5.3 5.3 5.3zm7.7-7.6l-7.7-7.7-7.7 7.7-7.3-7.4 9-8.9 6 6 6-6 9 9zm11-11.1l-8.9-9 9-8.9 8.9 9zm33.4 33.3L403.2 459l9-9 27.6 27.8zm14.6-14.6l-27.7-27.7 27.7-27.7 27.7 27.7zm42.3-13.1L460 486.7l-9-9 27.7-27.6zm0-29.2l-9 9-27.7-27.7 9-9zm-14.6-52l-5.3 5.2-5.3-5.3 5.3-5.3zm-7.7-7.7l-7.6 7.6 7.6 7.7-7.3 7.3-9-9 6.1-6-6-6 8.9-9zm22.3-44.5L460 353.3l-9-9 27.7-27.6zm0-29.2l-9 9-27.7-27.7 9-9zm-14.6-52l-5.3 5.2-5.3-5.3 5.3-5.3zm-7.7-7.7l-7.6 7.6 7.6 7.7-7.3 7.3-9-8.9 6.1-6-6-6.1 8.9-9zm22.3-44.5L460 220l-9-8.9 27.7-27.7zm0-29.1l-9 8.9-27.7-27.7 9-9zM473.2 111l-5.3 5.3-5.3-5.3 5.3-5.3zm-7.7-7.7L458 111l7.6 7.7-7.3 7.3-9-9 6.1-6-6-6.1 8.9-8.9zM487.8 59L460 86.5l-9-8.9L478.8 50zm-9-20.2l-27.7-27.8 9-8.9 27.7 27.7zM485 0h-4.7l8.4 8.4V3.7zM5.8 0L0 5.8v4.7L10.5 0zM0 482.9l5.8 5.8h4.7L0 478.2z"/></svg>