<svg xmlns="http://www.w3.org/2000/svg" viewBox="0 0 487.7 491.9"><defs><linearGradient id="a" x1="-44.6" x2="528.7" y1="414.6" y2="83.6" gradientUnits="userSpaceOnUse"><stop offset="0" stop-color="#d7b86d"/><stop offset=".6" stop-color="#fff6de"/><stop offset="1" stop-color="#d4bd85"/></linearGradient></defs><path fill="url(#a)" d="M0 400.7v18.7l17.3-9.4zm0-112.5V307l17.3-9.4zm0-112.5v18.8l17.3-9.4zM0 63.3V82l17.3-9.4zm173.8 409l-30.3 16.4 5.8 3.1h19.2l-5.8-3.1 11.2-6 17 9.1H210zm208.4.4l-.7-.4-30.3 16.4 5.7 3.1h19.2l-5.8-3.1 11.2-6 17 9.1h19zM0 468v10.4l24.8 13.4h19zM124.6 4.2L70 33.7l-11.2-6 20.8-11.3L58.8 5.2l1.9-1H37.9l1.8 1-11.2 6-13-7L7.7 0 0 4.2v10.4l7.8-4.2 20.7 11.2 20.8-11.3 11.2 6.1-20.8 11.3L70 44l73.7-39.9zm363.1 86.2V80L381.5 22.5 351 38.9 372 50.2l-11.2 6L340 45l-20.8 11.2-11.2-6 84.8-46h-19l-85 46 30.4 16.4L340 55.3l11.2 6.1-20.8 11.3 20.8 11.2L340 90 204.2 16.4l11.2-6L236 21.6 257 10.4l11.2 6-20.8 11.3L277.7 44l73.6-39.9h-19.1l-54.5 29.5-11.2-6 20.7-11.3-20.8-11.2 1.9-1h-22.8l1.8 1-11.2 6-13-7h-15.5l-22.5 12.2 154.9 84 30.3-16.5-20.8-11.3 11.2-6 20.8 11.2 20.7-11.2 11.2 6-135.7 73.6-11.2-6 20.7-11.3-20.7-11.3 11.2-6 20.7 11.2 30.3-16.4-154.8-84L143.4 39l20.8 11.3-11.2 6L132.3 45l-20.7 11.2-11.2-6 84.8-46h-19.1l-84.8 46 30.3 16.4 20.7-11.3 11.2 6.1-20.7 11.3 20.7 11.2-11.2 6.1L0 18.3v10.3l132.3 71.7L162.6 84 142 72.6l11.2-6 20.8 11.2 20.7-11.2 11.2 6L70 146.3l-11.2-6 20.8-11.3-20.8-11.3 11.2-6 20.8 11.2 30.3-16.4L0 40.8V51l102 55.3-11.2 6L70 101.3l-20.7 11.3-11.2-6.1L58.8 95 28.5 78.8 0 94.2v10.3l28.5-15.4 11.2 6L19 106.5l20.8 11.2-11.3 6.1-20.8-11.3-7.7 4.3V127l7.8-4.2 20.7 11.3 20.8-11.3 11.2 6-20.8 11.3L70 156.6l154.9-84-30.3-16.4-20.8 11.3-11.2-6 20.8-11.3-20.8-11.3 11.2-6 135.8 73.5-11.2 6-20.7-11.2-20.8 11.3-11.2-6.1L266.5 95 236 78.7l-154.8 84 30.3 16.3 20.7-11.2 11.2 6-20.7 11.3 20.7 11.2-11.2 6L0 130.8v10.4l131.6 71.3.7.4 30.4-16.4-20.8-11.3L153 179l20.8 11.3 20.7-11.3 11.2 6L70 258.8l-11.2-6.1 20.8-11.3-20.8-11.2L70 224l20.8 11.3 30.3-16.5L0 153.3v10.4l102 55.3-11.2 6L70 213.7l-20.7 11.2-11.2-6 20.7-11.3-30.3-16.4L0 206.6V217l28.5-15.4 11.2 6L19 219 39.8 230l-11.2 6L7.7 225 0 229.1v10.4l7.8-4.2 20.7 11.2 20.8-11.2 11.2 6-20.8 11.3L70 269l154.9-83.9-30.3-16.4-20.8 11.2-11.2-6 20.8-11.3-20.8-11.2 11.2-6.1 135.8 73.5-11.2 6.1-20.8-11.2-20.7 11.2-11.2-6 20.8-11.3-30.4-16.4L81.3 275l30.3 16.4 20.7-11.3 11.2 6.1-20.7 11.3 20.7 11.2-11.2 6L0 243.3v10.4l132.3 71.6 30.3-16.4-20.7-11.2 11.2-6.1 20.8 11.2 20.7-11.2 11.2 6L70 371.2 58.8 365l20.8-11.2-20.8-11.3 11.2-6 20.8 11.2 30.3-16.4L0 265.7v10.4l102 55.2-11.2 6L70 326.2l-20.7 11.3-11.2-6L58.8 320l-30.3-16.5L0 319.1v10.3L28.5 314l11.2 6L19 331.4l20.8 11.2-11.2 6.1-20.9-11.2-7.7 4.2v10.3l7.8-4.2L28.4 359l20.8-11.2 11.2 6L39.7 365 70 381.5l154.9-84-30.3-16.4-20.8 11.3-11.2-6 20.8-11.3-20.8-11.3 11.2-6 135.8 73.5-11.2 6-20.8-11.2-20.7 11.3-11.2-6 20.7-11.3-30.3-16.5-154.8 84 30.3 16.4 20.7-11.2 11.2 6-20.7 11.2 20.7 11.3-11.2 6L0 355.7V366l132.3 71.7 30.4-16.4-20.8-11.3 11.2-6 20.8 11.3 20.7-11.3 11.2 6L70 483.6l-11.2-6 20.8-11.3L58.8 455l11.2-6 20.8 11.2 30.3-16.4L0 378.2v10.3l102 55.3-11.2 6L70 438.6l-20.7 11.2-11.2-6 20.7-11.3-30.3-16.4L0 431.5V442l28.5-15.4 11.2 6L19 443.8 39.7 455l-11.2 6-20.8-11.2L0 454v10.4l7.8-4.2 20.7 11.2 20.8-11.2 11.2 6-20.8 11.3L66.3 492h7.5L225 410l-30.3-16.4-20.7 11.3-11.2-6.1 20.7-11.3-20.8-11.2 11.3-6 135.7 73.5-11.2 6-20.7-11.2-20.8 11.2-11.2-6 20.7-11.3-30.3-16.4-139.9 75.8h19.1l120.8-65.4 11.2 6-20.7 11.3 20.7 11.2-11.2 6-20.7-11.2-30.4 16.4 47.4 25.7h19l-47.2-25.6 11.2-6.1 20.7 11.2 20.8-11.2 11.2 6-20.8 11.3 26.6 14.4h7.5L432.6 410l-30.4-16.4-20.7 11.2-11.2-6 20.7-11.3-20.7-11.2 11.2-6 106.2 57.5v-10.4L381.5 360 351 376.3l20.8 11.2-11.2 6.1-20.7-11.2-20.8 11.2-11.2-6L443.8 314l11.2 6-20.8 11.3 20.8 11.3-11.2 6-20.8-11.2-30.3 16.4 95 51.5v-10.4l-76-41.1 11.3-6 20.8 11.2 20.7-11.2 11.2 6L455 365l30.3 16.4 2.4-1.3v-10.3l-2.4 1.3-11.2-6.1 13.6-7.4V350l-13.6-7.4 11.2-6 2.4 1.2v-10.3l-2.4-1.3-20.8 11.3-11.2-6 20.8-11.3-30.4-16.5-154.8 84 30.3 16.4 20.8-11.3 11.2 6-20.8 11.3 20.8 11.3-11.2 6-135.8-73.5 11.2-6L236 359l20.8-11.3 11.2 6.1-20.8 11.3 30.4 16.4 154.8-84-30.3-16.3-20.7 11.2-11.2-6L391 275l-20.8-11.3 11.3-6 106.2 57.5V305l-105.5-57.2-.7-.4-30.3 16.4 20.7 11.3-11.2 6L340 270l-20.8 11.3L308 275l135.8-73.6 11.2 6.1-20.8 11.3L455 230l-11.2 6L423 225l-30.3 16.4 95 51.5v-10.3l-76-41.2 11.3-6 20.7 11.2 20.8-11.2 11.2 6-20.7 11.3 30.3 16.4 2.4-1.3v-10.4l-2.4 1.4-11.2-6.1 13.6-7.4v-7.7l-13.6-7.4 11.2-6.1 2.4 1.3V215l-2.4-1.3-20.8 11.2-11.2-6 20.8-11.3-30.4-16.4L289 275.1l30.3 16.4 20.8-11.2 11.2 6-20.8 11.3 20.8 11.2-11.2 6-135.8-73.5 11.2-6 20.7 11.2 20.8-11.2 11.2 6-20.8 11.3 30.4 16.4 154.9-83.9-30.4-16.4-20.7 11.2-11.2-6 20.7-11.3-20.8-11.2 11.3-6 106.2 57.4v-10.3L381.5 135l-30.3 16.4 20.7 11.3-11.2 6-20.7-11.3-20.8 11.3-11.2-6L443.8 89l11.2 6-20.8 11.3 20.8 11.2-11.2 6.1-20.8-11.3-30.3 16.5 95 51.4V170l-76-41.1 11.3-6 20.7 11.2 20.8-11.3 11.2 6-20.7 11.3 30.3 16.5 2.4-1.4V145l-2.4 1.3-11.2-6 13.6-7.5V125l-13.6-7.4 11.2-6 2.4 1.3v-10.4l-2.4-1.3-20.8 11.3-11.1-6.1L474 95l-30.4-16.4-154.8 84 30.3 16.4 20.8-11.3 11.2 6-20.8 11.3 20.8 11.3-11.2 6L204.2 129l11.2-6L236 134l20.8-11.2 11.2 6-20.8 11.3 30.4 16.4 154.8-83.9-30.3-16.4-20.7 11.3-11.2-6L391 50.1l-20.7-11.3 11.2-6zM236.1 348.6l-20.7-11.2-30.3 16.4L340 437.7l30.3-16.4-20.8-11.3 11.2-6 20.8 11.2 20.7-11.2 11.2 6-135.7 73.6-11.2-6.1 20.7-11.2-20.8-11.3 11.3-6 20.7 11.2 30.3-16.4-154.1-83.6-.7-.3-30.4 16.4 20.8 11.2-11.2 6.1-20.8-11.2-20.7 11.2-11.2-6L236 314l11.2 6-20.7 11.3 20.7 11.3zm0-112.4l-20.7-11.3-30.3 16.4 154.9 84 30.3-16.5-20.8-11.2 11.2-6.1 20.8 11.3 20.7-11.3 11.2 6-135.7 73.6-11.2-6 20.7-11.3-20.7-11.2 11.2-6.1 20.7 11.2 30.3-16.4L174 247.4l-30.4 16.4 20.8 11.3-11.2 6-20.8-11.2-20.7 11.3-11.2-6.1L236 201.5l11.2 6.1-20.7 11.2 20.7 11.3zm0-112.5l-20.7-11.2-30.4 16.4 155 83.9 30.3-16.4-20.8-11.3 11.2-6 20.8 11.2 20.7-11.2 11.2 6-135.7 73.6-11.2-6.1 20.7-11.3-20.7-11.2 11.2-6.1 20.7 11.3 30.3-16.5-154.1-83.5-.7-.4-30.4 16.5 20.8 11.2-11.2 6-20.8-11.2-20.7 11.3-11.2-6.1L236 89.1l11.2 6-20.7 11.3 20.8 11.2zM487.7 12.6l-13.6-7.4 1.8-1H453l1.8 1-11.1 6-13-7h-15.6l-22.5 12.2 95 51.5V57.5l-76-41 11.3-6.2 20.8 11.3 20.7-11.3 11.2 6.1L455 27.7 485.3 44l2.4-1.3V32.4l-2.4 1.3-11.2-6 13.6-7.4zM287.1 4.2l11.3 6.2 11.4-6.2zm-207.7 0l11.4 6.1 11.4-6.1zm408.3 446V440l-2.4-1.3-20.8 11.2-11.2-6 20.8-11.3-30.4-16.4-139.9 75.8H323l120.8-65.4 11.2 6-20.8 11.3L455 455l-11.2 6-20.8-11.2-30.3 16.5 47.3 25.6h19.1l-47.3-25.6 11.2-6.1 20.8 11.2 20.7-11.2 11.2 6-20.7 11.3 26.5 14.4h6.2v-9.6l-2.4 1.3-11.2-6 13.6-7.5v-7.7l-13.6-7.4 11.2-6zM2.4 492H0v-1.3z"/></svg>