<svg xmlns="http://www.w3.org/2000/svg" viewBox="0 0 478 475.7"><defs><linearGradient id="a" x1="-40.5" x2="513.9" y1="398.4" y2="78.3" gradientUnits="userSpaceOnUse"><stop offset="0" stop-color="#d7b86d"/><stop offset=".6" stop-color="#fff6de"/><stop offset="1" stop-color="#d4bd85"/></linearGradient></defs><path fill="url(#a)" d="M473 16.1h.5V8.4h-.6a37.1 37.1 0 0 0-31.7 15 117.1 117.1 0 0 0-14.5-7.3 48.3 48.3 0 0 1 20-16.1h-15A54.3 54.3 0 0 0 419 14a138.6 138.6 0 0 0-16.2-2.9A70.7 70.7 0 0 1 410.6 0H401a73.2 73.2 0 0 0-6.7 10.6h-.6c-1-1.7-2.7-5.6-6.6-10.6h-9.5a70.7 70.7 0 0 1 7.8 11.1 138.6 138.6 0 0 0-16.2 2.8A63.4 63.4 0 0 0 356.5 0H342a53.3 53.3 0 0 1 20 16.7 95.1 95.1 0 0 0-15 7.3c-3.9-5-13.4-15-31.2-15h-.6a37.1 37.1 0 0 0-31.7 15 117.8 117.8 0 0 0-14.5-7.3c2.8-5 9.5-11.7 20-16.7h-15a54.3 54.3 0 0 0-12.7 14c-5-1.7-10.6-2.3-16.2-2.9A70.5 70.5 0 0 1 252.9 0h-9.5a73.2 73.2 0 0 0-6.6 10.6h-.6C235 8.9 233.4 5 229.5 0H220a70 70 0 0 1 7.8 11.1 139 139 0 0 0-16.2 2.8A82 82 0 0 0 199 0h-14.5a53.3 53.3 0 0 1 20 16.7 95.1 95.1 0 0 0-15 7.3c-3.9-5-13.3-15-31.2-15h-.5a37.1 37.1 0 0 0-31.8 15 118 118 0 0 0-14.5-7.3 48.2 48.2 0 0 1 20-16.1h-15a54.4 54.4 0 0 0-12.8 13.9 140.6 140.6 0 0 0-16.1-2.8A69.2 69.2 0 0 1 95.3.6h-9.5A72.4 72.4 0 0 0 79 11h-.6c-1-1.6-2.7-5.5-6.6-10.5h-9.5a69.2 69.2 0 0 1 7.8 11.1A141.1 141.1 0 0 0 54 14.5 71.3 71.3 0 0 0 40.7 0H26.2a53.3 53.3 0 0 1 20 16.7 94.7 94.7 0 0 0-15 7.3A38 38 0 0 0 0 8.4v7.8c14.5 0 22.3 7.8 25 11.7a71.7 71.7 0 0 0-9.4 8.4A22.5 22.5 0 0 0 0 30.6V39c5 0 8.4 1.7 10 3.9A57.1 57.1 0 0 0 0 58.5v7.8a78 78 0 0 1 62.4 29 69.2 69.2 0 0 1 7.8 11.1 141.1 141.1 0 0 0-16.2 2.8 71.3 71.3 0 0 0-13.3-14.5A65.1 65.1 0 0 0 0 81.3v7.8c10.6 0 19.5 2.3 26.2 5.6a53.3 53.3 0 0 1 20 16.7 94.7 94.7 0 0 0-15 7.2c-3.3-5-12.8-15-31.2-15v7.8c14.5 0 22.3 7.8 25.1 11.7a71.7 71.7 0 0 0-9.5 8.4A22.5 22.5 0 0 0 0 126v7.8c5 0 8.4 1.7 10 3.9-5.6 6.7-9 12.3-10 15.6v8.4a78 78 0 0 1 62.4 29 69.6 69.6 0 0 1 7.8 11.1 139 139 0 0 0-16.2 2.7 58.9 58.9 0 0 0-13.4-15A64.8 64.8 0 0 0 0 176v7.8c10.6 0 19.5 2.2 26.2 5.6a53.3 53.3 0 0 1 20 16.7 94.7 94.7 0 0 0-15 7.2c-3.3-5-12.8-15-31.2-15v7.8c14.5 0 22.3 7.8 25.1 11.7a71.7 71.7 0 0 0-9.5 8.4A22.5 22.5 0 0 0 0 220.6v7.8c5 0 8.4 1.7 10 3.9a57.6 57.6 0 0 0-10 15.6v8.3a78 78 0 0 1 62.4 29 69.6 69.6 0 0 1 7.8 11.2 139 139 0 0 0-16.2 2.7 58.9 58.9 0 0 0-13.4-15A64.8 64.8 0 0 0 0 270.7v7.8c10.6 0 19.5 2.3 26.2 5.6a53.3 53.3 0 0 1 20 16.7 94.7 94.7 0 0 0-15 7.2C28 303 18.4 293 0 293v7.9c14.5 0 22.3 7.8 25.1 11.7a71.7 71.7 0 0 0-9.5 8.3A22.5 22.5 0 0 0 0 315.3v7.8c5 0 8.4 1.7 10 3.9-5.6 6.7-9 12.3-10 15.6v8.4a78 78 0 0 1 62.4 29 69.6 69.6 0 0 1 7.8 11.2 139 139 0 0 0-16.2 2.6 58.9 58.9 0 0 0-13.4-15A64.8 64.8 0 0 0 0 365.4v7.8c10.6 0 19.5 2.3 26.2 5.6a53.3 53.3 0 0 1 20 16.7 94.7 94.7 0 0 0-15 7.2c-3.3-5-12.8-15-31.2-15v7.9c14.5 0 22.3 7.7 25.1 11.6a71.7 71.7 0 0 0-9.5 8.4A22.5 22.5 0 0 0 0 410v7.8c5 0 8.4 1.7 10 3.9a58 58 0 0 0-10 15.6v7.8a78 78 0 0 1 62.4 29h9.5a31 31 0 0 0-4-5 17 17 0 0 1 10.6-3.3c5.6 0 9 1.6 11.2 3.9a30 30 0 0 0-4 5h9a80 80 0 0 1 62.4-29h1.1a78 78 0 0 1 62.4 29h9.5a30.6 30.6 0 0 0-4-5 17 17 0 0 1 10.7-3.4c5.5 0 8.9 1.7 11 4a31 31 0 0 0-3.8 5h9.5a80 80 0 0 1 62.4-29h1.1a78 78 0 0 1 62.4 29h9.5a31 31 0 0 0-4-5 17 17 0 0 1 10.6-3.4c5.6 0 9 1.6 11.2 3.9a31 31 0 0 0-4 5h9.6a80 80 0 0 1 62.3-29h1.2V439h-.6a82.1 82.1 0 0 0-10.6-15.6 17 17 0 0 1 10.6-3.4h.5v-7.8h-.5a23.6 23.6 0 0 0-15.6 5.6c-2.8-2.8-6.2-5.6-9.5-8.4a31 31 0 0 1 25-11.7h.6V390h-.5a37.1 37.1 0 0 0-31.8 15 118.5 118.5 0 0 0-14.5-7.2 48.2 48.2 0 0 1 20.1-16.1 58.7 58.7 0 0 1 26.2-5.6h.5v-7.8h-1c-19 0-32.4 6.7-40.7 13.4a54.3 54.3 0 0 0-12.8 14c-5-1.8-10.6-2.3-16.2-2.9a69.2 69.2 0 0 1 7.8-11.1 80 80 0 0 1 62.4-29h1.1v-8.4h-.6a82.8 82.8 0 0 0-10.5-15.6 17 17 0 0 1 10.5-3.3h.6v-7.8h-.6a23.7 23.7 0 0 0-15.6 5.6c-2.7-2.8-6-5.6-9.4-8.4a31 31 0 0 1 25-11.7h.6v-7.8h-.6a37.1 37.1 0 0 0-31.7 15 118 118 0 0 0-14.5-7.2 48.2 48.2 0 0 1 20-16.1 58.7 58.7 0 0 1 26.2-5.6h.6v-7.8h-1.1c-19 0-32.3 6.7-40.7 13.4a54.4 54.4 0 0 0-12.8 13.9 138.4 138.4 0 0 0-16.2-2.8 69.2 69.2 0 0 1 7.8-11.1 80 80 0 0 1 62.4-29h1.1v-8.4h-.5a82.5 82.5 0 0 0-10.6-15.5 17 17 0 0 1 10.6-3.4h.5V223h-.5a23.6 23.6 0 0 0-15.6 5.5c-2.8-2.8-6.1-5.5-9.5-8.3a31 31 0 0 1 25-11.7h.6v-7.8h-.5a37.1 37.1 0 0 0-31.8 15 117.8 117.8 0 0 0-14.5-7.3 48.2 48.2 0 0 1 20.1-16.1 58.8 58.8 0 0 1 26.2-5.6h.5v-7.8h-1c-19 0-32.4 6.7-40.7 13.4a54.5 54.5 0 0 0-12.9 13.9 138.4 138.4 0 0 0-16.1-2.8 69.2 69.2 0 0 1 7.8-11.1 80 80 0 0 1 62.4-29h1.1v-8.4h-.6a82 82 0 0 0-10.5-15.6 17 17 0 0 1 10.5-3.3h.6V128h-.6a23.6 23.6 0 0 0-15.6 5.5 146 146 0 0 0-9.4-8.3 31 31 0 0 1 25-11.7h.6v-7.8h-.6a37.1 37.1 0 0 0-31.7 15 118.5 118.5 0 0 0-14.5-7.2 48.2 48.2 0 0 1 20-16.2 58.8 58.8 0 0 1 26.2-5.6h.6v-7.7h-1.1c-19 0-32.3 6.7-40.7 13.4a54.5 54.5 0 0 0-12.8 14 139 139 0 0 0-16.2-2.9 69.2 69.2 0 0 1 7.8-11.1 80 80 0 0 1 62.4-29h1.2v-7.8h-.6c-5.5-5-8.9-11.1-15-18.4A17 17 0 0 1 473 39h.6v-7.8h-.6a23.6 23.6 0 0 0-15.5 5.6 72 72 0 0 0-9.5-9 31.8 31.8 0 0 1 25-11.7zm-157.7 0h.6a30 30 0 0 1 25 11.7 72.4 72.4 0 0 0-9.4 8.4 22.5 22.5 0 0 0-15.7-5.6h-.5a23.6 23.6 0 0 0-15.6 5.6 80 80 0 0 0-10-8.4 33.1 33.1 0 0 1 25.6-11.7zm70.2 89.7a138.6 138.6 0 0 0-16.2 2.8 63.4 63.4 0 0 0-12.8-13.9 65.2 65.2 0 0 0-40.7-13.4h-1A64 64 0 0 0 274 94.7a54.3 54.3 0 0 0-12.8 14 138.4 138.4 0 0 0-16.2-2.9 70.5 70.5 0 0 1 7.8-11.1 80 80 0 0 1 62.4-29h1.1a78 78 0 0 1 62.4 29c2.8 4.5 5.6 8.4 6.7 11.1zm0 94.7a138.6 138.6 0 0 0-16.2 2.8 63.4 63.4 0 0 0-12.8-13.9 65.2 65.2 0 0 0-40.7-13.4h-1a64 64 0 0 0-40.7 13.4 54.3 54.3 0 0 0-12.8 14 138.4 138.4 0 0 0-16.2-2.9 70.5 70.5 0 0 1 7.8-11.1 80 80 0 0 1 62.4-29h1.1a78 78 0 0 1 62.4 29c2.8 4.5 5.6 8.4 6.7 11.1zm0 94.7a138.6 138.6 0 0 0-16.2 2.8 63.4 63.4 0 0 0-12.8-14 65.2 65.2 0 0 0-40.7-13.3h-1a64 64 0 0 0-40.7 13.4 54.3 54.3 0 0 0-12.8 13.9 138.4 138.4 0 0 0-16.2-2.8 70.5 70.5 0 0 1 7.8-11.1 80 80 0 0 1 62.4-29h1.1a78 78 0 0 1 62.4 29c2.8 4.5 5.6 8.4 6.7 11.1zm0 94.7a138.6 138.6 0 0 0-16.2 2.8 63.4 63.4 0 0 0-12.8-13.9 65.2 65.2 0 0 0-40.7-13.4h-1a64 64 0 0 0-40.7 13.4 54.5 54.5 0 0 0-12.8 14 138.4 138.4 0 0 0-16.2-2.9 70.5 70.5 0 0 1 7.8-11.1 80 80 0 0 1 62.4-29h1.1a78 78 0 0 1 62.4 29c2.8 4.5 5.6 8.4 6.7 11.1zm-69.6-2.2h-.6a37.1 37.1 0 0 0-31.8 15 117.8 117.8 0 0 0-14.4-7.2 48.2 48.2 0 0 1 20-16.2 59 59 0 0 1 26.2-5.6h.6a59 59 0 0 1 26.1 5.6 53.2 53.2 0 0 1 20 16.7 95.1 95.1 0 0 0-15 7.3c-3.3-5.6-12.8-15.6-31.1-15.6zm25 19.5a72.4 72.4 0 0 0-9.4 8.4 22.5 22.5 0 0 0-15.7-5.6h-.5a23.6 23.6 0 0 0-15.6 5.6c-2.8-2.8-6.1-5.6-9.5-8.4a31 31 0 0 1 25.1-11.7h.5a30 30 0 0 1 25.1 11.7zM228 390a139 139 0 0 0-16.2 2.8 82 82 0 0 0-12.8-13.9 65.2 65.2 0 0 0-40.7-13.4h-1.1c-19 0-32.3 6.7-40.7 13.4a54.4 54.4 0 0 0-12.8 14c-5-1.7-10.6-2.3-16.1-2.9a70 70 0 0 1 7.8-11.1 80 80 0 0 1 62.4-29h1a78 78 0 0 1 62.5 29l6.6 11.1zm-70.3-2.2h-.5a37.1 37.1 0 0 0-31.8 15 118 118 0 0 0-14.4-7.2 48.3 48.3 0 0 1 20-16.2 58.9 58.9 0 0 1 26.2-5.6h.6c10.5 0 19.5 2.3 26.1 5.6a53.2 53.2 0 0 1 20 16.7 95.1 95.1 0 0 0-15 7.3c-3.3-5.6-12.8-15.6-31.2-15.6zm25.7 19.5a72.4 72.4 0 0 0-9.5 8.4 22.5 22.5 0 0 0-15.6-5.6h-.5a23.6 23.6 0 0 0-15.6 5.6c-2.8-2.8-6.2-5.6-9.5-8.4a31 31 0 0 1 25-11.7h.6a31 31 0 0 1 25 11.7zM94.7 284.1a80 80 0 0 1 62.4-29h1.1a78.1 78.1 0 0 1 62.4 29 70.5 70.5 0 0 1 7.8 11.1 138.4 138.4 0 0 0-16.2 2.8c-2.7-2.8-6.6-8.4-13.3-14a65.2 65.2 0 0 0-40.7-13.3h-1.1c-19 0-32.3 6.7-40.7 13.4a54.2 54.2 0 0 0-12.8 13.9 138.4 138.4 0 0 0-16.1-2.8c1-2.7 3.9-6.6 7.2-11.1zm0-94.7a80 80 0 0 1 62.4-29h1.1a78.1 78.1 0 0 1 62.4 29 70.5 70.5 0 0 1 7.8 11.1 138.4 138.4 0 0 0-16.2 2.8c-2.7-2.8-6.6-8.3-13.3-13.9a65 65 0 0 0-40.7-13.4h-1.1c-19 0-32.3 6.7-40.7 13.4a54.2 54.2 0 0 0-12.8 13.9 138.4 138.4 0 0 0-16.1-2.8c1-2.7 3.9-6.6 7.2-11.1zm0-94.7a80 80 0 0 1 62.4-29h1.1a78.1 78.1 0 0 1 62.4 29 70.5 70.5 0 0 1 7.8 11.1 138.4 138.4 0 0 0-16.2 2.8c-2.7-2.8-6.6-8.3-13.3-13.9a65 65 0 0 0-40.7-13.4h-1.1c-19 0-32.3 6.7-40.7 13.4a54.2 54.2 0 0 0-12.8 14 138.4 138.4 0 0 0-16.1-2.9c1-2.7 3.9-6.6 7.2-11.1zm63-36.8h-.6a82.6 82.6 0 0 0-10.5-15.6A17 17 0 0 1 157 39h.6c5 0 8.3 1.7 10 3.9a113.2 113.2 0 0 0-10 15zm78.5 282.5a37.1 37.1 0 0 0-31.7 15 118.5 118.5 0 0 0-14.5-7.2c5-7.3 19-21.8 46.2-21.8 27.9-.5 41.8 15 46.8 22.3a94.7 94.7 0 0 0-15 7.3 35.2 35.2 0 0 0-31.8-15.6zm25.7 19.5a71.7 71.7 0 0 0-9.5 8.3 21.6 21.6 0 0 0-16.2-5.5 23.6 23.6 0 0 0-15.5 5.5c-2.8-2.8-6.2-5.5-9.5-8.3a31 31 0 0 1 25-11.7c15-.6 22.8 7.8 25.6 11.7zM236.2 318c-33.4.5-48.4 19.5-53.4 27.3a139 139 0 0 0-16.2-2.8 79.2 79.2 0 0 1 69.6-40.1c44-.6 64.7 29.5 70.8 40a138.4 138.4 0 0 0-16.2 2.9c-5-6.7-20.6-27.3-54.6-27.3zm.6-23.4h-.6c-1-1.7-2.7-5.6-6.6-10.6a31 31 0 0 0-4-5 17 17 0 0 1 10.6-3.3c5.6 0 9 1.6 11.2 3.9a31.5 31.5 0 0 0-4 5c-3.3 4.4-5.5 8.3-6.7 10zm-.6-26.7a23.6 23.6 0 0 0-15.6 5.6c-2.8-2.8-6.1-5.6-9.5-8.4a31 31 0 0 1 25-11.7c15 0 23 7.8 25.7 11.7a71.7 71.7 0 0 0-9.5 8.4 24.1 24.1 0 0 0-16.1-5.6zm0-22.3a37.1 37.1 0 0 0-31.8 15 118.5 118.5 0 0 0-14.4-7.2c5-7.3 19-21.8 46.2-21.8 27.9-.5 41.8 15 46.8 22.3a94.7 94.7 0 0 0-15 7.3 35.4 35.4 0 0 0-31.8-15.6zm0-22.3c-33.4.6-48.5 19.5-53.5 27.3a139 139 0 0 0-16.1-2.8 79.2 79.2 0 0 1 69.6-40c44-.6 64.6 29.5 70.7 40a138.4 138.4 0 0 0-16.1 2.8 64.4 64.4 0 0 0-54.6-27.3zm.6-23.4h-.6c-1.1-1.6-2.8-5.5-6.7-10.5a31 31 0 0 0-3.9-5 17 17 0 0 1 10.6-3.5c5.6 0 9 1.7 11.1 3.9a31.5 31.5 0 0 0-3.9 5c-3.3 4.5-5.5 8.4-6.7 10.1zm-.6-26.7a23.6 23.6 0 0 0-15.6 5.6c-2.8-2.8-6.1-5.6-9.5-8.4a31 31 0 0 1 25-11.7c15 0 23 7.8 25.7 11.7a71.7 71.7 0 0 0-9.5 8.4 24.1 24.1 0 0 0-16.1-5.7zm0-22.3a37.1 37.1 0 0 0-31.8 15 118.5 118.5 0 0 0-14.4-7.2c5-7.3 19-21.8 46.2-21.8 27.9-.5 41.8 15 46.8 22.3a94.7 94.7 0 0 0-15 7.3 35.3 35.3 0 0 0-31.8-15.6zm0-22.3c-33.4.6-48.5 19.5-53.5 27.3a139 139 0 0 0-16.1-2.8 79.2 79.2 0 0 1 69.6-40c44-.6 64.6 29.5 70.7 40a138.4 138.4 0 0 0-16.1 2.8 64.5 64.5 0 0 0-54.6-27.3zm.6-23.4h-.6c-1.1-1.6-2.8-5.5-6.7-10.5a31 31 0 0 0-3.9-5 17 17 0 0 1 10.6-3.4c5.6 0 9 1.7 11.1 3.9a31 31 0 0 0-3.9 5c-3.3 4.4-5.5 8.3-6.7 10zm-.6-26.7a23.6 23.6 0 0 0-15.6 5.6c-2.8-2.8-6.1-5.6-9.5-8.4a31 31 0 0 1 25-11.7c15 0 23 7.8 25.7 11.7a71.7 71.7 0 0 0-9.5 8.4 24.1 24.1 0 0 0-16.1-5.7zm0-22.8a37.1 37.1 0 0 0-31.8 15 117.1 117.1 0 0 0-14.4-7.3c5-7.2 19-21.7 46.2-21.7 27.9-.6 41.8 15 46.8 22.3a94.7 94.7 0 0 0-15 7.2 38 38 0 0 0-31.8-15.6zm-105.3 39a58.9 58.9 0 0 1 26.2-5.6h.6c10.5 0 19.5 2.2 26.1 5.6a53.3 53.3 0 0 1 20 16.7 95.1 95.1 0 0 0-15 7.2c-3.9-5-13.3-15-31.2-15h-.5a37.1 37.1 0 0 0-31.8 15 118 118 0 0 0-14.5-7.2c3.4-5.1 9.5-11.8 20.1-16.8zm26.2 16.1h.6c14.4 0 22.2 7.8 25 11.7a71.7 71.7 0 0 0-9.4 8.4 22.5 22.5 0 0 0-15.7-5.6h-.5a23.6 23.6 0 0 0-15.6 5.6c-2.8-2.8-6.1-5.6-9.5-8.4 2.8-4 10.6-11.2 25-11.8zm0 22.8h.6c5 0 8.3 1.7 10 4-5.6 6.6-9 12.2-10 15.6h-.6a82.6 82.6 0 0 0-10.6-15.7 14 14 0 0 1 10.6-4zm-26.2 55.7a58.9 58.9 0 0 1 26.2-5.6h.6c10.5 0 19.5 2.3 26.1 5.6a53.3 53.3 0 0 1 20 16.7 95.1 95.1 0 0 0-15 7.3c-3.9-5-13.3-15-31.2-15h-.5a37.1 37.1 0 0 0-31.8 15 118 118 0 0 0-14.5-7.3 53.3 53.3 0 0 1 20.1-16.7zm26.2 16.7h.6c14.4 0 22.2 7.8 25 11.7a71.7 71.7 0 0 0-9.4 8.4 22.5 22.5 0 0 0-15.7-5.6h-.5a23.6 23.6 0 0 0-15.6 5.6c-2.8-2.8-6.1-5.6-9.5-8.4 2.8-4.5 10.6-11.7 25-11.7zm0 22.3h.6c5 0 8.3 1.7 10 3.9-5.6 6.7-9 12.2-10 15.6h-.6a82.6 82.6 0 0 0-10.6-15.6c2.2-2.2 5.6-3.9 10.6-3.9zm-26.2 55.7a58.9 58.9 0 0 1 26.2-5.6h.6c10.5 0 19.5 2.3 26.1 5.6a53.3 53.3 0 0 1 20 16.7 95.1 95.1 0 0 0-15 7.2c-3.9-5-13.3-15-31.2-15h-.5a37.1 37.1 0 0 0-31.8 15 118 118 0 0 0-14.5-7.2 53.3 53.3 0 0 1 20.1-16.7zm26.2 16.7h.6c14.4 0 22.2 7.8 25 11.7a71.7 71.7 0 0 0-9.4 8.4 22.5 22.5 0 0 0-15.7-5.6h-.5a23.6 23.6 0 0 0-15.6 5.6c-2.8-2.8-6.1-5.6-9.5-8.4 2.8-4.4 10.6-11.7 25-11.7zm0 22.3h.6c5 0 8.3 1.7 10 3.9-5.6 6.7-9 12.3-10 15.6h-.6a82.6 82.6 0 0 0-10.6-15.6c2.2-2.2 5.6-4 10.6-4zm68.5 50.7a17 17 0 0 1 10.6-3.4c5.6 0 9 1.7 11.1 4a31.5 31.5 0 0 0-3.9 5 72.1 72.1 0 0 0-6.6 10.5h-.6c-1.1-1.7-2.8-5.6-6.7-10.6a20.1 20.1 0 0 0-3.9-5.5zm90.3-31.2h-.6a82.8 82.8 0 0 0-10.6-15.6 17 17 0 0 1 10.6-3.3h.5c5 0 8.4 1.6 10 3.9-5.5 5.5-8.3 11.7-10 15zm0-27.3h-.6a23.6 23.6 0 0 0-15.6 5.6c-2.8-2.8-6.1-5.6-9.5-8.4a31 31 0 0 1 25.1-11.7h.5a30 30 0 0 1 25.1 11.7 72.4 72.4 0 0 0-9.5 8.4 23.6 23.6 0 0 0-15.5-5.6zm0-22.3h-.6a37.1 37.1 0 0 0-31.8 15 117.8 117.8 0 0 0-14.4-7.2 48.2 48.2 0 0 1 20-16.2 59 59 0 0 1 26.2-5.6h.6a59 59 0 0 1 26.1 5.6 53.2 53.2 0 0 1 20 16.7 95.1 95.1 0 0 0-15 7.3C343.7 303 334.2 293 316 293zm0-45.7h-.6a82.9 82.9 0 0 0-10.6-15.6 17 17 0 0 1 10.6-3.3h.6c5 0 8.3 1.7 10 3.9-5.6 6.1-8.4 12.3-10 15zm0-26.7h-.6a23.6 23.6 0 0 0-15.6 5.6c-2.8-2.8-6.1-5.6-9.5-8.4a31 31 0 0 1 25.1-11.7h.5a30 30 0 0 1 25.1 11.7 72.4 72.4 0 0 0-9.5 8.4 23.6 23.6 0 0 0-15.5-5.6zm0-22.3h-.6a37.1 37.1 0 0 0-31.8 15 117.8 117.8 0 0 0-14.4-7.2 48.2 48.2 0 0 1 20-16.1 58.8 58.8 0 0 1 26.2-5.6h.6c10.5 0 19.5 2.3 26.1 5.6a53.2 53.2 0 0 1 20 16.7 95.1 95.1 0 0 0-15 7.3c-3.3-5.7-12.8-15.7-31.1-15.7zm0-45.7h-.6a82.9 82.9 0 0 0-10.6-15.6 17 17 0 0 1 10.6-3.4h.5c5 0 8.4 1.7 10 4-5.5 6.1-8.3 12.3-10 15zm0-26.7h-.6a23.6 23.6 0 0 0-15.6 5.6c-2.8-2.8-6.1-5.6-9.5-8.4a31 31 0 0 1 25.1-11.7h.5a30 30 0 0 1 25.1 11.7 72.4 72.4 0 0 0-9.5 8.4 23.6 23.6 0 0 0-15.5-5.6zm0-22.3h-.6a37.1 37.1 0 0 0-31.8 15 117.8 117.8 0 0 0-14.4-7.2 48.2 48.2 0 0 1 20-16.2 58.8 58.8 0 0 1 26.2-5.6h.6c10.5 0 19.5 2.3 26.1 5.6a53.2 53.2 0 0 1 20 16.7 95.1 95.1 0 0 0-15 7.3c-3.3-5.6-12.8-15.6-31.1-15.6zm0-45.7h-.6a82.9 82.9 0 0 0-10.6-15.6 17 17 0 0 1 10.6-3.3h.6c5 0 8.3 1.7 10 3.9-5.6 6.1-8.4 12.3-10 15zm-79.7-39.5c44-.6 64.6 29.5 70.7 40a138.4 138.4 0 0 0-16.1 2.9c-4.5-7.3-20-27.9-54.6-27.3-33.4.6-48.5 19.5-53.5 27.3a139 139 0 0 0-16.1-2.8 78.3 78.3 0 0 1 69.6-40.1zM157 16.2h.6c14.4 0 22.2 7.8 25 11.7a71.7 71.7 0 0 0-9.4 8.3 22.5 22.5 0 0 0-15.7-5.6h-.5a23.6 23.6 0 0 0-15.6 5.6c-2.8-2.8-6.1-5.6-9.5-8.4a31.9 31.9 0 0 1 25-11.7zm-132.6 45a138.4 138.4 0 0 0-16.1-2.7A79.2 79.2 0 0 1 78 18.4c44-.6 64.6 29.5 70.8 40a138.2 138.2 0 0 0-16.2 2.9C128 54 112.6 33.4 78 34a62.4 62.4 0 0 0-53.5 27.3zm22.3 10A117.8 117.8 0 0 0 32.3 64c5-7.2 19-21.7 46.2-21.7 27.9-.5 41.8 15 46.8 22.3a94.7 94.7 0 0 0-15 7.2 37.8 37.8 0 0 0-32.3-16c-17.8.5-27.3 10-31.2 15.5zm6.1 4A31 31 0 0 1 78 63.5c15 0 22.8 7.8 25.6 11.7a72.4 72.4 0 0 0-9.4 8.4A21.5 21.5 0 0 0 78 78a23.6 23.6 0 0 0-15.6 5.6c-2.8-2.3-5.6-5.6-9.5-8.4zM68 89.7a17 17 0 0 1 10.6-3.4c5.6 0 8.9 1.7 11.1 4a30.5 30.5 0 0 0-3.9 5 72.4 72.4 0 0 0-6.7 10.5h-.5c-1.1-1.6-2.8-5.5-6.7-10.6-1.2-2.2-2.8-3.8-3.9-5.5zM24.5 156a138.4 138.4 0 0 0-16.1-2.8A79.2 79.2 0 0 1 78 113.1c44-.5 64.6 29.5 70.7 40.1a138.2 138.2 0 0 0-16.1 2.8c-4.5-7.3-20-27.9-54.6-27.3A62.3 62.3 0 0 0 24.5 156zm22.3 10a117.8 117.8 0 0 0-14.5-7.2c5-7.3 19-21.8 46.3-21.8 27.8-.5 41.7 15 46.7 22.3a94.7 94.7 0 0 0-15 7.3A39 39 0 0 0 78 151a36.8 36.8 0 0 0-31.2 15zm6.1 3.9A31 31 0 0 1 78 158.2c15 0 22.8 7.8 25.6 11.7a72.4 72.4 0 0 0-9.4 8.4 21.6 21.6 0 0 0-16.2-5.6 23.6 23.6 0 0 0-15.6 5.6c-2.8-2.3-5.6-5.6-9.5-8.4zm15 14.5a17 17 0 0 1 10.6-3.4c5.6 0 9 1.7 11.2 3.9a31 31 0 0 0-4 5 72.4 72.4 0 0 0-6.6 10.6h-.6c-1-1.7-2.7-5.6-6.6-10.6-1.2-2.2-2.8-3.8-3.9-5.5zm-43.4 66.3a138.4 138.4 0 0 0-16.1-2.8A79.2 79.2 0 0 1 78 207.8c44-.6 64.6 29.5 70.7 40a138.2 138.2 0 0 0-16.1 2.9c-4.5-7.3-20-27.9-54.6-27.3a62.4 62.4 0 0 0-53.5 27.3zm22.3 10a117.8 117.8 0 0 0-14.5-7.3c5-7.2 19-21.7 46.3-21.7 27.8-.5 41.7 15 46.7 22.3a94.7 94.7 0 0 0-15 7.2A39 39 0 0 0 78 245.6a36.7 36.7 0 0 0-31.2 15.1zm6.1 3.9a31 31 0 0 1 25-11.7c15 0 23 7.8 25.7 11.7a72.4 72.4 0 0 0-9.5 8.4 21.6 21.6 0 0 0-16.1-5.6 23.6 23.6 0 0 0-15.6 5.6c-2.8-2.3-5.6-5.6-9.5-8.4zM68 279a17 17 0 0 1 10.6-3.4c5.6 0 9 1.7 11.2 4a31 31 0 0 0-4 5 72.4 72.4 0 0 0-6.6 10.5h-.6c-1.1-1.7-2.8-5.6-6.7-10.6-1-2.2-2.7-3.8-3.8-5.5zm-43.4 66.3a138.4 138.4 0 0 0-16.1-2.8A79.1 79.1 0 0 1 78 302.5c44-.6 64.6 29.5 70.8 40a138.2 138.2 0 0 0-16.2 2.9c-4.5-7.3-20-27.9-54.6-27.3-32.9.5-48.5 20-53.5 27.3zm22.3 10a117.8 117.8 0 0 0-14.5-7.3c5-7.2 19-21.7 46.3-21.7 27.8-.5 41.7 15 46.7 22.3a94.7 94.7 0 0 0-15 7.2A39 39 0 0 0 78 340.3a36.7 36.7 0 0 0-31.2 15.1zm6.1 4.4a31 31 0 0 1 25-11.7c15 0 23 7.8 25.7 11.7a72.4 72.4 0 0 0-9.5 8.4 21.6 21.6 0 0 0-16.1-5.6 23.6 23.6 0 0 0-15.6 5.6 71.7 71.7 0 0 0-9.5-8.3zm15 14a17 17 0 0 1 10.6-3.4c5.6 0 9 1.7 11.2 4a31 31 0 0 0-4 5 72.4 72.4 0 0 0-6.6 10.5h-.6c-1.1-1.7-2.8-5.6-6.7-10.6-1-2.2-2.7-3.8-3.8-5.5zm26.2 89.1a21.6 21.6 0 0 0-16.1-5.6 23.6 23.6 0 0 0-15.6 5.6c-2.8-2.8-6.2-5.6-9.5-8.4a31 31 0 0 1 25-11.7c15 0 22.9 7.8 25.7 11.7-3.3 2.9-6.7 5.6-9.5 8.4zm16.2-12.8a37.4 37.4 0 0 0-32.3-15 37.1 37.1 0 0 0-31.8 15 118 118 0 0 0-14.5-7.2c5-7.3 19-21.8 46.3-21.8 27.8 0 41.8 15 46.8 22.3a68.5 68.5 0 0 0-14.5 6.7zm22.3-9.5c-4.5-7.2-20-27.8-54.6-27.3-33.4.6-49 19.5-53.5 27.3a140.6 140.6 0 0 0-16.1-2.8 79.2 79.2 0 0 1 69.6-40c44-.6 64.6 29.5 70.8 40a51.8 51.8 0 0 0-16.2 2.8zm25-3.3h-.5a82.6 82.6 0 0 0-10.6-15.6 17 17 0 0 1 10.6-3.3h.5c5 0 8.4 1.6 10 3.9a69 69 0 0 0-10 15zm94.7 25.6a21.6 21.6 0 0 0-16.1-5.5 23.6 23.6 0 0 0-15.6 5.5c-2.8-2.8-6.1-5.5-9.5-8.3a31 31 0 0 1 25-11.7c15 0 23 7.8 25.7 11.7-3.3 2.8-6.7 5.5-9.5 8.3zm15.7-12.8a37.4 37.4 0 0 0-32.3-15 37.1 37.1 0 0 0-31.8 15 117.8 117.8 0 0 0-14.4-7.2c5-7.3 18.9-21.8 46.2-21.8 27.8 0 41.8 15 46.8 22.3a68.5 68.5 0 0 0-14.5 6.7zm22.3-9.5c-4.5-7.2-20-27.8-54.6-27.3-33.4.6-48.5 19.5-53.5 27.3a140.8 140.8 0 0 0-16.2-2.8 79.2 79.2 0 0 1 69.6-40c44-.6 64.7 29.5 70.8 40a51.7 51.7 0 0 0-16.2 2.8zm25.6-3.3h-.6a82.8 82.8 0 0 0-10.5-15.6 17 17 0 0 1 10.5-3.3h.6c5 0 8.4 1.6 10 3.9-5.6 5.5-8.4 11.6-10 15zm94.1 25.6a21.6 21.6 0 0 0-16.2-5.5 23.6 23.6 0 0 0-15.6 5.5c-2.7-2.8-6-5.5-9.4-8.3a31 31 0 0 1 25-11.7c15 0 22.9 7.8 25.7 11.7-3.4 2.8-6.7 5.5-9.5 8.3zm16.1-12.8a37.4 37.4 0 0 0-32.3-15 37.1 37.1 0 0 0-31.7 15 118.5 118.5 0 0 0-14.5-7.2c5-7.3 19-21.8 46.2-21.8 27.9 0 41.8 15 46.8 22.3a68.7 68.7 0 0 0-14.5 6.7zm38.5-12.8a139 139 0 0 0-16.2 2.8c-4.4-7.3-20-27.9-54.6-27.3-33.4.5-48.4 19.5-53.4 27.3a138.4 138.4 0 0 0-16.2-2.8 79.2 79.2 0 0 1 69.6-40.1c44 0 64.7 29.5 70.8 40zm-70.2-47.4h-.6c-1-1.6-2.7-5.5-6.6-10.5a31.5 31.5 0 0 0-4-5 17 17 0 0 1 10.6-3.4c5.6 0 9 1.7 11.2 3.9a31 31 0 0 0-4 5 50.8 50.8 0 0 0-6.6 10zm15.6-21.7a21.6 21.6 0 0 0-16.2-5.5 23.6 23.6 0 0 0-15.6 5.5c-2.7-2.8-6-5.5-9.4-8.3a31 31 0 0 1 25-11.7c15 0 22.9 7.8 25.7 11.7-3.4 2.8-6.7 5.5-9.5 8.3zm16.1-12.8a39 39 0 0 0-32.3-15.6 37.1 37.1 0 0 0-31.7 15 117.1 117.1 0 0 0-14.5-7.2c5-7.3 19-21.8 46.2-21.8 27.9-.5 41.8 15 46.8 22.3a118.5 118.5 0 0 0-14.5 7.3zm38.5-12.8a139 139 0 0 0-16.2 2.8c-4.4-7.3-20-27.9-54.6-27.3-33.4.5-48.4 19.5-53.4 27.3a138.4 138.4 0 0 0-16.2-2.8 79.2 79.2 0 0 1 69.6-40.1c44 0 64.7 29.5 70.8 40zm-70.2-48h-.6c-1-1.6-2.7-5.5-6.6-10.5a31 31 0 0 0-4-5 17 17 0 0 1 10.6-3.4c5.6 0 9 1.7 11.2 4a31.5 31.5 0 0 0-4 5c-3.3 4.4-5.5 8.3-6.6 10zm15.6-21a21.6 21.6 0 0 0-16.2-5.7 23.6 23.6 0 0 0-15.6 5.6c-2.7-2.8-6-5.6-9.4-8.3a31 31 0 0 1 25-11.7c15 0 22.9 7.8 25.7 11.7-3.4 2.8-6.7 5.5-9.5 8.3zm16.1-12.9a39 39 0 0 0-32.3-15.6 37.1 37.1 0 0 0-31.7 15 115.7 115.7 0 0 0-14.5-7.2c5-7.3 19-21.8 46.2-21.8 27.9-.5 41.8 15 46.8 22.3a118.5 118.5 0 0 0-14.5 7.3zm38.5-12.8a139 139 0 0 0-16.2 2.8c-4.4-7.3-20-27.9-54.6-27.3-33.4.5-48.4 19.5-53.4 27.3a138.4 138.4 0 0 0-16.2-2.8 79.2 79.2 0 0 1 69.6-40.1c44-.6 64.7 29.5 70.8 40zM394.4 200h-.6c-1-1.7-2.7-5.6-6.6-10.6a31 31 0 0 0-4-5 17 17 0 0 1 10.6-3.4c5.6 0 9 1.7 11.2 3.9a31.5 31.5 0 0 0-4 5c-3.3 4.5-5.5 8.4-6.6 10.1zm15.6-21.2a21.6 21.6 0 0 0-16.2-5.6 23.6 23.6 0 0 0-15.6 5.6c-2.7-2.8-6-5.6-9.4-8.3a31 31 0 0 1 25-11.7c15 0 22.9 7.8 25.7 11.7-3.4 2.8-6.7 5.5-9.5 8.3zm16.1-12.8a39 39 0 0 0-32.3-15.6 37.1 37.1 0 0 0-31.7 15 117.1 117.1 0 0 0-14.5-7.2c5-7.3 19-21.8 46.2-21.8 27.9-.5 41.8 15 46.8 22.3a118.5 118.5 0 0 0-14.5 7.3zm38.5-12.8a139 139 0 0 0-16.2 2.8c-4.4-7.3-20-27.9-54.6-27.3-33.4.6-48.4 19.5-53.4 27.3a138.4 138.4 0 0 0-16.2-2.8 79.2 79.2 0 0 1 69.6-40.1c44-.6 64.7 29.5 70.8 40zm-70.2-48h-.6c-1-1.6-2.7-5.5-6.6-10.5a31 31 0 0 0-4-5 17 17 0 0 1 10.6-3.4c5.6 0 9 1.7 11.2 4a31 31 0 0 0-4 5c-3.3 4.4-5.5 8.3-6.6 10zm15.6-21a21.6 21.6 0 0 0-16.2-5.6 23.6 23.6 0 0 0-15.6 5.5c-2.7-2.8-6-5.5-9.4-8.3a31 31 0 0 1 25-11.7c15 0 22.9 7.8 25.7 11.7-3.4 2.8-6.7 5.5-9.5 8.3zm16.1-12.9a37.4 37.4 0 0 0-32.3-15 37.1 37.1 0 0 0-31.7 15 118.5 118.5 0 0 0-14.5-7.2c5-7.3 19-21.8 46.2-21.8 27.9-.5 41.8 15 46.8 22.3a68.7 68.7 0 0 0-14.5 6.7zm38.5-12.8a139 139 0 0 0-16.2 2.8c-4.4-7.3-20-27.9-54.6-27.3-33.4.6-48.4 19.5-53.4 27.3a138.4 138.4 0 0 0-16.2-2.8 79.2 79.2 0 0 1 69.6-40.1c44-.6 64.7 29.5 70.8 40zm-32.3 415h15a58.9 58.9 0 0 1 26.2-5.6h.5v-7.8H473a67.4 67.4 0 0 0-40.6 13.4zm-117.6-12.8c-18.9 0-32.3 6.7-40.6 13.4h15a59 59 0 0 1 26.2-5.6h.5A59 59 0 0 1 342 474h14.5a65.1 65.1 0 0 0-40.7-13.4zM0 468.5c10.6 0 19.5 2.2 26.2 5.6h14.5A65.2 65.2 0 0 0 0 460.7zm157-7.8c-18.8 0-32.2 6.7-40.6 13.4h15a58.8 58.8 0 0 1 26.2-5.6h.6a59 59 0 0 1 26.2 5.6h14.4a65.1 65.1 0 0 0-40.6-13.4z"/></svg>