<svg xmlns="http://www.w3.org/2000/svg" viewBox="0 0 490.4 489.1"><defs><linearGradient id="a" x1="-41.8" x2="529.1" y1="409.9" y2="80.4" gradientUnits="userSpaceOnUse"><stop offset="0" stop-color="#d7b86d"/><stop offset=".6" stop-color="#fff6de"/><stop offset="1" stop-color="#d4bd85"/></linearGradient></defs><path fill="url(#a)" d="M248.2 457.2l-2.5-2.4-2.4-2.4-2.5 2.4-2.4 2.5-30.7 30.9.4.4.6.5h9.7l-.5-.5-.5-.5 25.9-26 26 25.9-.5.5-.6.6h9.7l.6-.6.6-.6zM35.6 488.6L0 453.2v9.7l25.8 25.7.2.1-.4.4h9.7l.4-.4zm-14.7-76l-2.4 2.4-2.5 2.4-16 16.1v9.8l20.9-21 66.7 66.2-.6.6h9.7l.6-.6zm-4.8 76L0 472.6v9.7l6.3 6.3.2.2-.3.3h9.7l.3-.3zM488.6 23.4l-24.4 24.5L416.1 0h-9.8l58 57.6 2.4-2.4 2.5-2.5 19.4-19.5.6-.6v-9.8zm0-12.8L477.8 0h-9.7l20.5 20.4.5.5v-9.7zM7.3 0L0 7.3v9.8L17 0zm242.6 0l-8 8-8.2-8H224l13 12.9 2.4 2.4 2.5 2.5v-.1l4.9-4.9L259.6 0zM68.7 0l-49 49.3L0 29.6v9.7l14.9 14.8 2.4 2.5 2.5 2.4L78.4 0zm116 151.8l-2.5-2.5-26-25.8-2.5-2.5-2.4-2.4-4.9-4.8-2.4-2.5-2.4-2.4-31-30.7L80 109.1l-2.4 2.4L75 114l-4.8 4.9-2.5 2.4-2.4 2.5-25.9 26-2.4 2.5-2.4 2.4 71.5 71 2.5 2.6 2.2 2 .2.3.3-.2 2.1-2.2 2.5-2.4.1-.2 71-71.4zm-74-63.9l26 25.9-25.8 26-26-25.9zM80 119l30.9 30.6 30.7-30.9 4.9 4.9-35.6 35.8-35.8-35.6zm31.1 102l-66.7-66.3 25.9-26L111 169l40.4-40.7 26 25.9zM447.5 151l-2.4-2.5-26-25.8-2.5-2.5-2.4-2.4-5-4.8-2.3-2.5-2.5-2.4-30.9-30.7-30.7 30.9-2.4 2.4-2.5 2.5-4.8 4.8-2.4 2.4-2.5 2.5-25.8 26-2.4 2.5-2.4 2.4L369 225l2.5 2.5 2.2 2.1.2.3.3-.3 2.1-2.1 2.5-2.5v-.1l71-71.4zm-74-63.9l26 25.9-25.8 26-26-25.8zM342.8 118l31 30.7 30.6-30.9 5 4.9-35.7 35.7L338 123zM374 220l-66.7-66.3 26-26 40.6 40.5 40.4-40.7 26 25.8zm73.6-69l-2.5-2.5-26-25.8-2.4-2.5-2.4-2.4-5-4.8-2.3-2.5-2.5-2.4-30.9-30.7-30.7 30.9-2.4 2.4-2.5 2.5-4.8 4.8-2.4 2.4-2.5 2.5-25.8 26-2.4 2.5-2.4 2.4L369 225l2.5 2.5 2.1 2.1.3.3.3-.3 2.1-2.1 2.5-2.5v-.1l71-71.4zm-74-63.9l26 25.9-25.8 26-26-25.8zM342.8 118l31 30.7 30.6-30.9 5 4.9-35.7 35.7L338 123zM374 220l-66.7-66.3 26-26 40.6 40.5 40.4-40.7 26 25.8zm-189.2-68.2l-2.5-2.5-26-25.8-2.5-2.5-2.4-2.4-4.9-4.8-2.4-2.5-2.4-2.4-31-30.7L80 109.1l-2.4 2.4L75 114l-4.8 4.9-2.5 2.4-2.4 2.5-25.9 26-2.4 2.5-2.4 2.4 71.5 71 2.5 2.6 2.2 2 .2.3.3-.2 2.1-2.2 2.5-2.4.1-.2 71-71.4zm-74-63.9l26 25.9-25.8 26-26-25.9zM80 119l30.9 30.6 30.7-30.9 4.9 4.9-35.6 35.8-35.8-35.6zm31.1 102l-66.7-66.3 25.9-26L111 169l40.4-40.7 26 25.9zm73.6-69.2l-2.5-2.4-26-25.9-2.5-2.4-2.4-2.4-4.9-4.8-2.4-2.5-2.4-2.4-31-30.7L80 109.1l-2.4 2.4L75 114l-4.8 4.9-2.5 2.4-2.4 2.5-25.9 26-2.4 2.5-2.4 2.4 71.5 71 2.5 2.6 2.2 2 .2.3.3-.2 2.1-2.2 2.5-2.4.1-.2 71-71.4zm-74-63.8l26 25.9-25.8 26-26-25.9zm-30.7 31l30.9 30.6 30.7-30.9 4.9 4.9-35.6 35.8-35.8-35.6zm31.1 102l-66.7-66.3 25.9-26L111 169l40.4-40.7 26 25.9zM447.5 151l-2.4-2.5-26-25.8-2.5-2.5-2.4-2.4-5-4.8-2.3-2.5-2.5-2.4-30.9-30.7-30.7 30.9-2.4 2.4-2.5 2.5-4.8 4.8-2.4 2.4-2.5 2.5-25.8 26-2.4 2.5-2.4 2.4L369 225l2.5 2.5 2.2 2.1.2.3.3-.3 2.1-2.1 2.5-2.5v-.1l71-71.4zm-74-63.9l26 25.9-25.8 26-26-25.8zM342.8 118l31 30.7 30.6-30.9 5 4.9-35.7 35.7L338 123zM374 220l-66.7-66.3 26-26 40.6 40.5 40.4-40.7 26 25.8zm73.6-69l-2.5-2.5-26-25.8-2.4-2.5-2.4-2.4-5-4.8-2.3-2.5-2.5-2.4-30.9-30.7-30.7 30.9-2.4 2.4-2.5 2.5-4.8 4.8-2.4 2.4-2.5 2.5-25.8 26-2.4 2.5-2.4 2.4L369 225l2.5 2.5 2.1 2.1.3.3.3-.3 2.1-2.1 2.5-2.5v-.1l71-71.4zm-74-63.9l26 25.9-25.8 26-26-25.8zM342.8 118l31 30.7 30.6-30.9 5 4.9-35.7 35.7L338 123zM374 220l-66.7-66.3 26-26 40.6 40.5 40.4-40.7 26 25.8zm-189.2-68.2l-2.5-2.5-26-25.8-2.5-2.5-2.4-2.4-4.9-4.8-2.4-2.5-2.4-2.4-31-30.7L80 109.1l-2.4 2.4L75 114l-4.8 4.9-2.5 2.4-2.4 2.5-25.9 26-2.4 2.5-2.4 2.4 71.5 71 2.5 2.6 2.2 2 .2.3.3-.2 2.1-2.2 2.5-2.4.1-.2 71-71.4zm-74-63.9l26 25.9-25.8 26-26-25.9zM80 119l30.9 30.6 30.7-30.9 4.9 4.9-35.6 35.8-35.8-35.6zm31.1 102l-66.7-66.3 25.9-26L111 169l40.4-40.7 26 25.9zm378-107l1.2-1.2-1.2-1.3-.6-.6-.6-.6-2.4-2.4-26-25.8 4.8-4.9 24.3 24.1.5.6V92l-.5-.6-19.4-19.2 4.8-4.9 14.5 14.5.6.5v-9.7l-.6-.5-9.7-9.7 9.7-9.7.6-.6v-9.7l-.6.5L474 57.6l-2.5 2.5-2.4 2.4-4.8 4.9L396.5 0h-9.8l72.7 72.2-4.8 5-2.4 2.3-2.5 2.5-25.8 26-4.9-4.8 25.8-26 2.5-2.5 2.4-2.4L377 0h-7.4l-72.3 72.7 2.5 2.4 2.4 2.5 26 25.8-4.9 5-26-26L295 80l-2.5-2.4-4.9-4.8L360 0H355L242.2 113.5 355 0h-4.8l-67.6 68-4.8-5-2.5-2.3-2.4-2.5-26-25.8 4.9-5 26 26 2.4 2.4 2.5 2.4L340.4 0h-9.6l-48.2 48.5-26-26L279 0h-9.7l-17.6 17.7-2.4 2.5-2.5 2.4-4.8 4.9-5-4.8-2.4-2.5-2.5-2.4L214.2 0h-9.8l22.8 22.7-25.8 26-49-48.7h-9.8l58.8 58.4 2.4-2.4 2.5-2.5 25.8-26 4.9 4.9-25.9 26-2.4 2.5-2.4 2.4-4.9 4.9L133 0H123l73.5 73-4.9 5-2.3 2.3-2.5 2.5-25.9 26-4.8-4.8L182 78l2.5-2.5 2.4-2.4L113.3 0h-5.7L34.5 73.5l2.4 2.4 2.4 2.5 26 25.8-4.8 5-26-25.9-2.5-2.5-2.4-2.4-4.9-4.8L97.8 0h-9.7L19.8 68.7 15 64l-2.4-2.4L10 59 0 49v9.7l5.2 5.2L0 69V79l10.1-10.1 4.9 4.8-15 15v9.8l19.9-20 4.8 4.8-24.7 25v12l25 24.7-5 4.9-20-20v9.8l15.2 15L0 170v9.8l20.1-20.2 4.9 4.8-25 25.1V201l25 25 10 9.7-9.8 9.9L0 270.9v11L25.4 307l2.5 2.4 2.4 2.4 66.2-66.5 5-5 .3.2 4.6 4.6-.2.1-71 71.5-4.8 4.9-5-4.9-4.8-4.8L0 291.5v9.7l15.7 15.6L0 332.7v9.7l20.6-20.7 4.9 4.9L0 352.2v10.4l25.7 25.6-4.9 4.8L0 372.4v9.7l16 15.8-4.8 5L0 391.7v9.6l6.3 6.3L0 414v9.8l11.2-11.3 2.4-2.4 2.4-2.4 4.8-5 86.3 85.8h-.1l-.6.6h11.1l-.7-.7 85.7-86.2 4.9 4.9 2.4 2.4 2.5 2.4 26 25.9-4.9 4.9-26-25.9-2.5-2.4-2.4-2.4-76 76.4.7.7h9.8l-.8-.7 66.3-66.7 26 25.8-40.4 40.7.3.4.6.5h9.8l-.6-.5-.4-.4 35.6-35.8 2.5-2.4 2.3-2.5 4.9-4.9h.1l4.9 4.9 2.4 2.4 2.5 2.4 35.8 35.6-.7.7-.5.5h9.7l.5-.5.7-.7-40.7-40.4 25.9-26 66.7 66.3-.8.8-.6.6h9.7l.5-.6.9-.9-76.4-76-2.5 2.5-2.4 2.4-25.8 26-5-4.9 26-26 2.3-2.4 2.5-2.4 4.8-5 86.2 85.8-.8.9-.6.5H381l-.6-.5-1-1 85.8-86.2 4.9 4.9 2.4 2.4 2.5 2.4 13.4 13.4.6.6v-9.7l-.6-.6-8.5-8.6 8.6-8.6.6-.6v-9.8l-.6.6-13.5 13.6-4.9-4.9 18.4-18.5.5-.6v-9.8l-.5.6-23.3 23.4-4.9-4.8 25.9-26 2.3 2.3.5.5V354l-.5-.6-28.4-28.1 4.9-5 23.5 23.4.5.6v-9.7l-.5-.6-18.7-18.5 18.7-18.8.5-.5v-9.8l-.5.6-23.6 23.6-2.4 2.4-2.4 2.4-4.9 5-4.9-5-71.4-70.9-.1-.1 4.8-4.9 71.6 71.1 2.5-2.4 2.4-2.5 25.8-26 2.5-2.4v-.1l.6-.6v-9.8l-.5.6-2.6 2.6-25.9-25.7-9.9-9.9 9.9-9.9 25.7-25.8 2.8 2.8.6.5v-9.7l-1-1-2.4-2.4-26-25.8 4.8-5 24 24 .6.5v-9.7l-.6-.6-19.1-19 19-19.3.6-.6v-9.7l-.5.5-24 24.2-5-4.9 29-29zM307 72.7L373.3 6 440 72.3l-25.9 26-40.7-40.4L333 98.6zm-14.5 14.7l26 25.8-25.9 26-26-25.8zM252 108.5l2.4-2.4 2.5-2.4 25.8-26 4.9 4.8-25.9 26-2.4 2.4-2.4 2.5 30.9 30.7-4.9 4.9-30.9-30.7-4.9-4.9zm-4.1 248.2l-4.9-4.9h-.1l-2.5 2.4-2.4 2.5-4.9 4.9-4.8-4.9-31-30.7 5-4.9 30.8 30.7 2.5-2.4 2.4-2.4 4.9-5 5 5 2.4 2.3 2.4 2.5 30.7-31 5 5-30.8 30.8-4.8 5zm0 9.7l-4.9 5-5-5 5-4.8v-.1zm-29.4-9.6l-25.8 26-26-25.9 25.8-26zm24.3-56.8l9.7-9.8 26 25.8-25.8 26-9.8-9.7-9.8 9.8-26-25.9 25.8-26zm-5-14.7l4.8-4.9v.1h.2l4.8 4.8-4.9 5zm55.4 45.3l26 25.8-25.8 26.1-26-25.9zm0-9.8l-5-4.8-2.4-2.4-2.4-2.5-26-25.8-2.4-2.4-2.4-2.4-5-4.9-2.4-2.4-2.4-2.5h-.1l-2.5 2.5-2.4 2.4-4.8 5-2.5 2.4-2.4 2.4-25.9 26-2.5 2.5-2.3 2.4-4.9 5-4.9-5-71.4-71h-.1l4.8-5 71.6 71.2 2.5-2.5 2.3-2.4 25.9-26 2.5-2.4 2.3-2.5 4.9-4.9 2.5-2.4 2.3-2.5 5-4.9 5 5 2.4 2.3 2.4 2.5 4.9 4.8 2.4 2.5 2.5 2.4 26 25.8 2.4 2.5 2.5 2.4 66.1-66.6 5-5 .3.3 4.6 4.6h-.1L298 316zm-16.4-87.4l1.5 1.6-9.8 9.9-16 16.1-9.9-9.7-9.7 9.8-16.2-16.1-9.9-9.8 1.5-1.5 24.4-24.5 9.8 9.7 9.8-9.8zm-19.6-29.2l4.8-4.9L288 225l9.9 9.9-9.8 9.9-25.7 25.9-5-4.9L288 235zm-60 31l30.8 30.7-4.9 4.9-25.9-25.7-9.8-9.9 9.8-9.8 25.7-26 5 5zm-19.5 0l40.6 40.5-25.8 26-56.8-56.5-9.9-9.8 5.5-5.6 60.7-61 26 25.8zm172 9.4l-56.5 56.8-26-25.9 40.3-40.6-40.6-40.5 25.9-26 61.2 61 5.4 5.3zm-87.7-55l-2.4 2.5-2.4 2.4-4.9 4.9-2.4 2.4-2.4 2.4-5 5-5-5-2.3-2.4-2.5-2.4-5-4.8-2.3-2.4-2.5-2.5-26-25.8 4.8-5 26 26 2.5 2.4 2.4 2.4 5 4.8 2.3 2.4 2.5 2.5h.1l2.5-2.5 2.4-2.4 4.8-4.9 2.5-2.4 2.4-2.5 25.8-26 5 4.9zM242.4 170l-9.7 9.8-26-25.8 25.8-26 9.8 9.8 9.7-9.9 26 25.8-25.8 26zm5 14.7l-4.8 4.8h-.2l-4.8-4.8 4.9-5zm-5.1-66.4l5 4.8-5 5-5-5 4.9-4.9zm-.3-81.2l26 25.9-25.8 26-26-25.9zm-30.8 31l26 25.8 2.4 2.4 2.5 2.4 2.5-2.4L247 94l25.8-26 4.9 4.8-25.8 26-2.4 2.5-2.5 2.4-4.8 4.9-5-4.9-2.4-2.4-2.5-2.4-26-25.9zm-9.7 9.7l26 25.8 2.5 2.5 2.4 2.4 4.9 4.9-4.9 4.9-30.7 30.8-4.9-4.8 30.7-30.9-2.4-2.5-2.5-2.4-26-25.8zm-9.7 9.8l26 25.8-25.9 26-26-25.8zM44 73.5l66.3-66.7 66.7 66.3-25.8 26-40.7-40.4-40.4 40.7zM3.7 114.2l26-26 26 25.8-26 26zm83 131.2l-56.4 56.8-26-25.8 40.4-40.7L4 195.3l25.9-26L91 230l5.5 5.4zm19.6-10h-.1l-2.3-2.3-2.5-2.5-5-5-66.6-66-4.8-5 4.9-4.8 2.4-2.4 2.4-2.5 25.9-26 2.4-2.5 2.4-2.4 4.8-4.9 2.4-2.4 2.5-2.5 35.5-35.8 35.8 35.6 2.5 2.5 2.4 2.3 4.9 5 2.4 2.3 2.5 2.5 26 25.8 2.5 2.5 2.3 2.4 5 4.8-4.9 4.9-71.1 71.5-.3.3-2.2 2.2-2.4 2.5-4.8 4.8-.3-.3zm5 14.7l66.6 66.3-25.9 26-40.6-40.4L71 342.6l-26.1-25.8zm.1 71.3l-30.7 31-4.9-5 35.6-35.7 35.8 35.5-4.9 5zm26 35.6l-25.8 26-26-25.8 25.9-26zm-97.3-35.4l26 25.9 2.4 2.4 2.5 2.4 4.9 4.9 2.4 2.4 2.5 2.5 30.9 30.7 30.7-31 2.4-2.4 2.4-2.4 4.9-4.9 2.3-2.4 2.5-2.5 25.8-26 5 4.9-25.9 26-2.5 2.4-2.4 2.5-4.8 4.9-2.4 2.4-2.5 2.5-35.5 35.7-35.8-35.6-2.5-2.4-2.4-2.4-4.9-4.9-2.4-2.4-2.5-2.4-26-25.9zm138 75.8l-66.3 66.7-66.7-66.3 26-26 40.6 40.4 40.4-40.6zm-173.6-40l25.8-26 26 25.9-25.8 26zm107.4 126.2l-86.2-85.7 4.9-4.9 2.4-2.4 2.4-2.5 25.9-26L66 367l-25.8 26-2.4 2.4-2.5 2.5 76.5 76 76-76.4-2.4-2.5-2.5-2.5-26-25.8 4.8-4.9 26 25.8 2.5 2.5 2.4 2.4 5 4.9zm90.6-91.1l-5-4.9 26-26 4.8 4.9zm9.7 9.7l-4.8-4.9 25.8-26 4.9 4.9zm31 30.7l-26-25.9 25.8-26 26.1 25.9zM274 402l-26-25.8 4.8-5 26 26zm9.7-9.8l-26-25.8 4.8-4.9 26 25.9zm176.8 4.4l-85.7 86.2-86.2-85.7 4.8-4.9 2.4-2.5 2.5-2.4 25.8-26 4.9 4.9-25.8 26-4.9 4.9 76.4 76 76-76.5-2.4-2.4-2.4-2.4-26-25.9 4.8-4.8 26 25.8 2.5 2.4 2.4 2.4zM333.9 371l40.6 40.4 40.5-40.6 26 25.8-66.3 66.7L308 397zm121.5-41l26 26-25.9 26-26-25.9zm-5-4.8l-25.8 26-2.4 2.5-2.4 2.4-4.9 4.9-2.4 2.4-2.4 2.5-35.6 35.8-35.8-35.6-2.4-2.4-2.5-2.4-4.8-4.9-4.9-4.8-26-25.9 4.9-4.9 26 25.9 2.4 2.4 2.5 2.4 4.9 4.9 2.4 2.4 2.4 2.5 31 30.6 30.6-30.8 2.5-2.5 2.4-2.4 4.8-5 2.4-2.4 2.5-2.4 25.8-26zm-76.1-4.6l-30.8 30.9-4.8-4.9 35.5-35.8 35.8 35.6-4.9 5zm26 35.6l-25.9 26-26-25.9 25.8-26zm40.4-40.7l-25.9 26-40.7-40.4-40.4 40.7-26-26 66.3-66.5zm40.2-121.7l-40.5 40.7 40.7 40.4-25.8 26-56.8-56.5-9.9-9.8 5.5-5.6 60.8-61zm-21.2-40.5l-4.9 5-71 71.5-.3.2-2.3 2.2-2.3 2.5-4.9 4.8-.3-.3-4.6-4.5-.1-.2-2.3-2.3-2.5-2.4-5-5-66.5-66.1-5-4.9 5-4.9 2.4-2.4 2.4-2.5 25.8-26 2.5-2.5 2.4-2.3 4.8-5 2.5-2.3 2.4-2.5 35.6-35.8 35.7 35.6 2.5 2.4 2.4 2.4 5 4.9 2.3 2.4 2.5 2.4 26 25.9 2.5 2.4 2.4 2.4zm-5-14.6l-26-25.8 26-26 26 25.8zm-9.7 9.8l-26-25.8-2.4-2.5-2.4-2.4-5-4.9-2.3-2.4-2.5-2.4-30.9-30.7-30.7 30.9-2.4 2.4-2.5 2.5-4.8 4.8-2.4 2.4-2.5 2.5-25.8 26-2.4 2.5-2.4 2.4L369 225l2.5 2.5 2.1 2.1.3.3.3-.3 2.1-2.1 2.5-2.5v-.1l71-71.4-2.3-2.4zm-71.5-61.4l26 25.9-25.8 26-26-25.9zM342.8 118l31 30.7 30.6-30.9 5 4.9-35.7 35.7L338 123zM374 220l-66.7-66.3 26-26 40.6 40.5 40.4-40.7 26 25.8zm-262.5 10.3l2.1-2.1 2.5-2.5.1-.1 71-71.4-2.4-2.4-2.5-2.5-26-25.8-2.5-2.5-2.4-2.4-4.9-4.8-2.4-2.5-2.4-2.4-31-30.7L80 109.1l-2.4 2.4L75 114l-4.8 4.9-2.5 2.4-2.4 2.5-25.9 26-2.4 2.5-2.4 2.4 71.5 71 2.5 2.6 2.2 2 .2.3zM110.7 88l26 25.9-25.8 26-26-25.9zM80 119l30.9 30.6 30.7-30.9 4.9 4.9-35.6 35.8-35.8-35.6zm-35.6 35.7l25.9-26L111 169l40.4-40.7 26 25.9-66.2 66.7zm140.3-2.8l-2.5-2.5-26-25.8-2.5-2.5-2.4-2.4-4.9-4.8-2.4-2.5-2.4-2.4-31-30.7L80 109.1l-2.4 2.4L75 114l-4.8 4.9-2.5 2.4-2.4 2.5-25.9 26-2.4 2.5-2.4 2.4 71.5 71 2.5 2.6 2.2 2 .2.3.3-.2 2.1-2.2 2.5-2.4.1-.2 71-71.4zm-74-63.9l26 25.9-25.8 26-26-25.9zM80 119l30.9 30.6 30.7-30.9 4.9 4.9-35.6 35.8-35.8-35.6zm31.1 102l-66.7-66.3 25.9-26L111 169l40.4-40.7 26 25.9zM447.5 151l-2.4-2.5-26-25.8-2.5-2.5-2.4-2.4-5-4.8-2.3-2.5-2.5-2.4-30.9-30.7-30.7 30.9-2.4 2.4-2.5 2.5-4.8 4.8-2.4 2.4-2.5 2.5-25.8 26-2.4 2.5-2.4 2.4L369 225l2.5 2.5 2.2 2.1.2.3.3-.3 2.1-2.1 2.5-2.5v-.1l71-71.4zm-74-63.9l26 25.9-25.8 26-26-25.8zM342.8 118l31 30.7 30.6-30.9 5 4.9-35.7 35.7L338 123zM374 220l-66.7-66.3 26-26 40.6 40.5 40.4-40.7 26 25.8zm73.6-69l-2.5-2.5-26-25.8-2.4-2.5-2.4-2.4-5-4.8-2.3-2.5-2.5-2.4-30.9-30.7-30.7 30.9-2.4 2.4-2.5 2.5-4.8 4.8-2.4 2.4-2.5 2.5-25.8 26-2.4 2.5-2.4 2.4L369 225l2.5 2.5 2.1 2.1.3.3.3-.3 2.1-2.1 2.5-2.5v-.1l71-71.4zm-74-63.9l26 25.9-25.8 26-26-25.8zM342.8 118l31 30.7 30.6-30.9 5 4.9-35.7 35.7L338 123zM374 220l-66.7-66.3 26-26 40.6 40.5 40.4-40.7 26 25.8zm-189.2-68.2l-2.5-2.5-26-25.8-2.5-2.5-2.4-2.4-4.9-4.8-2.4-2.5-2.4-2.4-31-30.7L80 109.1l-2.4 2.4L75 114l-4.8 4.9-2.5 2.4-2.4 2.5-25.9 26-2.4 2.5-2.4 2.4 71.5 71 2.5 2.6 2.2 2 .2.3.3-.2 2.1-2.2 2.5-2.4.1-.2 71-71.4zm-74-63.9l26 25.9-25.8 26-26-25.9zM80 119l30.9 30.6 30.7-30.9 4.9 4.9-35.6 35.8-35.8-35.6zm31.1 102l-66.7-66.3 25.9-26L111 169l40.4-40.7 26 25.9zm73.6-69.2l-2.5-2.4-26-25.9-2.5-2.4-2.4-2.4-4.9-4.8-2.4-2.5-2.4-2.4-31-30.7L80 109.1l-2.4 2.4L75 114l-4.8 4.9-2.5 2.4-2.4 2.5-25.9 26-2.4 2.5-2.4 2.4 71.5 71 2.5 2.6 2.2 2 .2.3.3-.2 2.1-2.2 2.5-2.4.1-.2 71-71.4zm-74-63.8l26 25.9-25.8 26-26-25.9zm-30.7 31l30.9 30.6 30.7-30.9 4.9 4.9-35.6 35.8-35.8-35.6zm31.1 102l-66.7-66.3 25.9-26L111 169l40.4-40.7 26 25.9zM447.5 151l-2.4-2.5-26-25.8-2.5-2.5-2.4-2.4-5-4.8-2.3-2.5-2.5-2.4-30.9-30.7-30.7 30.9-2.4 2.4-2.5 2.5-4.8 4.8-2.4 2.4-2.5 2.5-25.8 26-2.4 2.5-2.4 2.4L369 225l2.5 2.5 2.2 2.1.2.3.3-.3 2.1-2.1 2.5-2.5v-.1l71-71.4zm-74-63.9l26 25.9-25.8 26-26-25.8zM342.8 118l31 30.7 30.6-30.9 5 4.9-35.7 35.7L338 123zM374 220l-66.7-66.3 26-26 40.6 40.5 40.4-40.7 26 25.8zm-189.2-68.2l-2.5-2.5-26-25.8-2.5-2.5-2.4-2.4-4.9-4.8-2.4-2.5-2.4-2.4-31-30.7L80 109.1l-2.4 2.4L75 114l-4.8 4.9-2.5 2.4-2.4 2.5-25.9 26-2.4 2.5-2.4 2.4 71.5 71 2.5 2.6 2.2 2 .2.3.3-.2 2.1-2.2 2.5-2.4.1-.2 71-71.4zm-74-63.9l26 25.9-25.8 26-26-25.9zM80 119l30.9 30.6 30.7-30.9 4.9 4.9-35.6 35.8-35.8-35.6zm31.1 102l-66.7-66.3 25.9-26L111 169l40.4-40.7 26 25.9zm-85.9 14.8L0 210.7v9.7l14 13.9 1.5 1.5-9.8 9.8-5.7 5.8v9.7l25.2-25.4zM447.5 151l-2.4-2.5-26-25.8-2.5-2.5-2.4-2.4-5-4.8-2.3-2.5-2.5-2.4-30.9-30.7-30.7 30.9-2.4 2.4-2.5 2.5-4.8 4.8-2.4 2.4-2.5 2.5-25.8 26-2.4 2.5-2.4 2.4L369 225l2.5 2.5 2.2 2.1.2.3.3-.3 2.1-2.1 2.5-2.5v-.1l71-71.4zm-74-63.9l26 25.9-25.8 26-26-25.8zM342.8 118l31 30.7 30.6-30.9 5 4.9-35.7 35.7L338 123zM374 220l-66.7-66.3 26-26 40.6 40.5 40.4-40.7 26 25.8zm114.7 229.6L451 487.4l1.2 1.2.5.5h9.8l-.6-.5-1.1-1.2 27.8-28 .6-.6V449zm0 19.5l-18.1 18.3 1.2 1.2.6.5h9.7l-.6-.5-1.2-1.3 8.3-8.4.6-.6v-9.7zm0-34.9L470.2 416l-2.4-2.4-2.4-2.5-76 76.5 1 1 .5.6h9.8l-.6-.6-1-1 66.3-66.7 23.2 23 .5.6v-9.7zm0-218.8l.5-.6V205l-.5.6-28.7 28.8 28.7 28.4.5.6v-9.7l-.5-.5-9-9-10-9.9 1.6-1.5z"/></svg>