<svg xmlns="http://www.w3.org/2000/svg" viewBox="0 0 493.5 488.8"><defs><linearGradient id="a" x1="-41.7" x2="529.8" y1="413.2" y2="83.2" gradientUnits="userSpaceOnUse"><stop offset="0" stop-color="#d7b86d"/><stop offset=".6" stop-color="#fff6de"/><stop offset="1" stop-color="#d4bd85"/></linearGradient></defs><path fill="url(#a)" d="M0 38.2v9l2.6 2.4-2.6 3v11.2l12.7-14.2zm0-27v10.2L32 50 0 85.6v11.1l42.5-47.4L0 11.3zM76.8 0l-11 12.3L52 0H41.6l25 22.4L86.9 0zM23.2 0H12.4l37.1 33.3 4.9-5.3zM0 157v10.2L26.6 191 0 220.7V232l37.2-41.5zm0 27v15l7.4-8.3zm38.3-80.1L19 125.4l42.4 38 48.3-53.8-50.5-45.3-5 5.7 44.9 40.2-38.7 43.1-31.3-28 10-11.2 20.5 18.3 20.3-22.6-39.6-35.5L0 119.2v15.5l44.2 39.7L49 169 2.4 127l38.6-43 29 25.8-11.2 12.4zM110.8 23L91.4 44.6l42.4 38 48.3-53.9-32-28.7h-11.3l32.7 29.4L133 72.5l-31.3-28 10-11.3L132 51.6 152.4 29 120 0h-13.1L64.8 47l52 46.6 4.7-5.4-46.8-42 38.7-43L142.3 29l-11 12.4zm93.4-23l2 1.8L208 0zm-18.4 0H175l14.2 12.7 4.8-5.3zM0 302.8V313l21.3 19.1L0 355.8V367l31.9-35.6zm0 27v4.2l2.1-2.4zm54-124.4l-5 5.6 44.8 40.3-38.6 43-31.4-28 10-11.2 20.5 18.4 20.3-22.6L35 215.3l-35 39v10.4L35.6 225l28.9 26-11 12.3L33 244.8l-19.4 21.6 42.4 38 48.4-53.9zM0 270.8v9.7l39 34.9 4.7-5.4zm105.5-106.7L86 185.7l42.4 38 48.3-54-50.4-45.1-5 5.6 44.9 40.2-38.7 43.1-31.3-28 10-11.2 20.4 18.4L147 170l-39.6-35.6-48 53.5 52 46.6 4.8-5.4-46.8-42 38.7-43L137 170l-11 12.3zm72.4-80.8l-19.3 21.6 42.4 38L249.3 89l-50.4-45.2-5 5.6 44.9 40.2-38.7 43.1-31.3-28 10-11.2 20.5 18.4 20.2-22.7L180 53.7l-48 53.5 52 46.6 4.8-5.4-46.8-42 38.6-43 29 25.8-11.1 12.4zM312.7 0h-11.4l9.9 8.8L272.5 52l-31.3-28 10-11.2L271.7 31 292 8.4 282.6 0h-10.1l9.4 8.4-11 12.4-20.5-18.3L231.1 24l42.3 38 48.4-53.9zm-98.3 25.6l23-25.6H228l-23.6 26.4 52 46.6 4.7-5.4zM0 448.6v10.2L16 473 2 488.8h10l14.6-16.3zm0-32v9.7l33.6 30.2 4.8-5.4zm48.6-70.1l-5 5.6 44.9 40.2-38.7 43.1-31.3-28 10-11.3L49 414.5 69.3 392l-39.7-35.5-29.6 33v10.4L30.3 366l28.9 26-11 12.3-20.5-18.4-19.4 21.6 42.4 38L99 391.6zm51.6-41.4l-19.4 21.6 42.4 38 48.3-53.9-50.4-45.2-5 5.6 44.9 40.3-38.7 43.1-31.3-28 10-11.3 20.5 18.4 20.3-22.6-39.7-35.6-48 53.5 52 46.6 4.9-5.3-46.8-42 38.5-43.1 29 26-11.1 12.3zm72.4-80.8L153.3 246l42.4 38L244 230l-50.4-45.2-5 5.6 44.9 40.3-38.7 43-31.3-28 10-11.2 20.4 18.4 20.3-22.6-39.6-35.6-48 53.5 52 46.6 4.8-5.4-46.8-42 38.7-43 28.9 25.9-11 12.3zm72.5-80.8l-19.4 21.6 42.4 38 48.4-53.9L266 104l-5 5.6 44.8 40.3-38.6 43.1-31.3-28 10-11.3 20.5 18.4 20.3-22.6-39.7-35.6-48 53.5 52 46.6 4.8-5.4-46.8-42 38.7-43 28.9 25.9-11 12.3-20.5-18.3zm72.5-80.8l-19.4 21.6 42.4 38 48.3-54-50.4-45.1-5 5.6 44.8 40.3-38.6 43-31.3-28 10-11.2 20.5 18.4L359 68.6l-39.6-35.5-48 53.5 52 46.6 4.8-5.4-46.8-42 38.6-43 29 25.8L338 81zM354 5l4.5-5h-9.3L344 5.8l52 46.6 4.8-5.4zm56.7-5l-.2.2-.2-.2h-10.6l11.7 10.4L420.6 0zm29.6 0l-28.1 31.3-31.4-28 3-3.3h-10l-3.2 3.5 42.4 38L450.3 0zm-397 487.5l-1.2 1.3h2.7zm72.5-80.8l-5 5.6 44.8 40.2-32.5 36.3h10l33.1-37zm.3 68l20.3-22.6-39.6-35.5-48 53.5 21 18.7h10.7l-21.7-19.5 38.6-43 29 25.9-11.1 12.3-20.5-18.3-19.3 21.6 23.5 21h10.4l-23.8-21.3 10-11.1zm51.2-109.3L148 386.9l42.4 38 48.3-53.8-50.4-45.3-5 5.7 44.9 40.2-38.7 43.1-31.3-28 10-11.2 20.5 18.3 20.3-22.6-39.6-35.5-48 53.5 52 46.5 4.8-5.3-46.8-42 38.6-43.1 29 25.9-11.1 12.3zm72.5-80.9l-19.4 21.6 42.4 38 48.3-53.9-50.4-45.2-5 5.6 44.9 40.3-38.7 43.1-31.3-28 10-11.3 20.5 18.4 20.2-22.6-39.6-35.5-48 53.5 52 46.5 4.8-5.4-46.8-42 38.7-43 28.9 25.9-11 12.3-20.5-18.3zm72.5-80.8l-19.4 21.6 42.4 38 48.3-53.9-50.4-45.2-5 5.6 44.8 40.3-38.6 43.1-31.3-28 10-11.3 20.4 18.4 20.3-22.6-39.6-35.6-48 53.5 52 46.6 4.7-5.3-46.7-42 38.6-43.1 28.9 25.9-11 12.3zm72.4-80.8l-19.3 21.6 42.4 38 48.3-53.9-50.4-45.2-5 5.6 44.8 40.2-38.6 43.2-31.4-28.1 10-11.2 20.5 18.4 20.3-22.6-39.7-35.6-48 53.5 52 46.6 4.8-5.4-46.7-42 38.6-43 29 26-11.1 12.3zm93.8-52.2l10.3-11.5V39.1l-29.7-26.6-48 53.5 52 46.6 4.8-5.4-46.7-42 38.6-43L488.7 48l-11 12.3-20.5-18.3-19.4 21.6 42.4 38 8.6-9.6V81l-9.5 10.6L448 63.5l10-11.2zm-.4-68.1l-5 5.6 15.7 14v-10zM164 476.8l-10.8 12h9.4l2-2.3 2.7 2.3h10zm19-10l-5 5.7 18.2 16.3h11.3zm51.5-41.2l-19.3 21.6 42.4 38 48.3-54-50.4-45.1-5 5.6 44.8 40.2-38.6 43.1-31.4-28 10-11.2 20.5 18.4 20.2-22.6-39.6-35.6-48 53.5 43.9 39.3h10.8l-44.7-40 38.7-43.2 28.9 26-11 12.3zm72.5-80.8l-19.4 21.5 42.4 38 48.4-53.9-50.5-45.2-5 5.7 44.9 40.2-38.7 43.1-31.3-28 10-11.2 20.5 18.3 20.3-22.6-39.7-35.5-48 53.5 52 46.6 4.8-5.4-46.8-42 38.6-43.1 29 26-11.1 12.2zm72.4-80.8l-19.3 21.6 42.3 38 48.4-53.9-50.4-45.2-5 5.6 44.8 40.2-38.7 43.2-31.3-28.1 10-11.2 20.5 18.4 20.3-22.7-39.6-35.5-48 53.5 52 46.5 4.8-5.3-46.8-42L382 244l29 26-11.1 12.3zm93.4-120.3l-5 5.6 21 18.9v-10.3zm.4 68l15.6-17.3 4.7-5.3-4.7-4.2-35-31.3-48 53.5 52 46.6 4.8-5.4-46.8-42 38.6-43 29 25.8-11.1 12.4-20.5-18.4-19.3 21.6 42.4 38 13.8-15.4V216L474 232.6l-31.3-28 10-11.3 20.5 18.4zm15.6-97l-10.5 11.6 10.5 9.4V126l-.5-.5.5-.5zM301.6 485.7l-2.7 3h6zm2-29.6l-29.2 32.6h9.3l20.5-23 25.6 23h10.1zm19-10l-5 5.7 41 36.9H370zM374 405l-19.4 21.6 42.4 38 48.4-53.9-50.5-45.2-5 5.6 44.9 40.3-38.7 43-31.3-28 10-11.2 20.5 18.4 20.3-22.6-39.6-35.6-48 53.5 52 46.6 4.8-5.4-46.8-42 38.6-43 28.9 25.9-11 12.3zm94.6-31.3l-31.3-28.1 10-11.2 20.5 18.4 20.2-22.6-39.6-35.6-48 53.5 52 46.6 4.8-5.4-46.8-42 38.6-43 29 25.9-11.1 12.3-20.4-18.3-19.4 21.6 42.4 38 19.2-21.5v-11zm-1.2-89l-5 5.6 26.3 23.6v-10.1zm21.3-35L473 267.3l15.8 14.1v-9.7l-5.8-5.2 5.8-6.4zm-45.6 186a55866 55866 0 0 0-47.7 53.1h10.2l-.5-.4 38.7-43.1 28.9 26-11.1 12.2-20.4-18.3-19.4 21.6 2.2 2h10.4l-2.4-2.2 10-11.2 14.9 13.4h10l15.9-17.6zm19-10l-5 5.7 31.7 28.3v-10.1zm24.4 63.1h2.2v-2.5zm2.2-104l-21 23.5 21 19v-9.8l-11.1-10 11.1-12.3z"/></svg>