<svg xmlns="http://www.w3.org/2000/svg" viewBox="0 0 488 488"><defs><linearGradient id="a" x1="-38.2" x2="530.3" y1="401.5" y2="73.3" gradientUnits="userSpaceOnUse"><stop offset="0" stop-color="#d7b86d"/><stop offset=".6" stop-color="#fff6de"/><stop offset="1" stop-color="#d4bd85"/></linearGradient></defs><path fill="url(#a)" d="M0 0v.4h18.3v20.7H0v6.6h18.3V46H0v6.6h52V.4h47.4v27H153V34h-.3v38.7h-19.4V47.9h-.4v-.1H99.1v25H72.5V100H46.1v31.5h.4v.1h25.9v20.6H30.6v.1H26v-52H0v5.8h19.2v46.1h-.1v6.8h60.4v-27.3h53.7V79.5h26.5V20.7h-53.5V.4h125v22.8h-25.6V34h-.4v15.9h-26.5v57.8h.4v.1h51.7v44.6h-18.9V128h-.3v-.1h-32.9v24.6H153v26.9h-25.7v31h.3v.1h25.3v20.2h-45.2v-51.2h-.3v-.1h-58V205H30.8v.1h-7.9v25.6H0v6.6h29.5v-25.6h19.9v25.5h.3v.1h31v-32.2h-.4v-.1h-24v-19.8h44.4v45.4h-.2v6.6h.4v.1h58.8v-26.9h19v26.8h.4v.1h58.6v-57.8h-.3v-.1H212V159h25.8v-57.9h-.3v-.1h-51.7V56.6h19.5v24.2h.3v.2h32.2V50h-25.5V29.7h25.5V.4h.6V0zm45.3 34h-.4v11.8H30.6v.1h-5.5V27.7h20.2zm0-12.9H25V.4h20.2zm27 103.8h-19v-18h19zm26.8 0H79.7v-18H99zm0-24.8H79.7V79.6H99zm27 24.8h-19.9v-18H126zm0-24.8h-20V79.6H126zm0-27.4h-19.9V54.5H126zm26.7 131.1h-18.6V186h18.5zm-79 8v18.8H56.2v-18.8zm105-8h-19V186h19zm0-24.5h-19v-20.2h19zm7-44.8H205v17.9h-19.3zm0 24.6H205v20.3h-19.3zM205 186v17.8h-19.3V186zm25.8 0v44.6h-45.1v-20.2h26.2V186zm0-129.5v17.8h-18.6V56.6zm7 252.8v-57.8h-.3v-.1h-58.8v26.9h-19v-26.8h-.3v-.1h-58.9v6.6h.2v45.5H56.2v-19.8h24.5v-32.2h-.4v-.1h-31V277H30.8v.1h-1.2v-25.6H0v6.6h22.8v25.6h26.6v25.5h.3v.1h58V258h45v20.2h-25.5v31h.3v.2H153V336h.3v.1h25.5v24.6H212v-24.5h18.9v44.5h-52v57.8h.3v.2h26.1v26.7h25.6V488h6.6v-29.1h-25.6v-4.2h.4v-16h25.5V408h-.3v-.2h-32.2v24.4h-19.5v-44.5h52v-57.8h-.3v-.1h-25.5v-20.4zM56.2 258.1h17.6V277H56.2zm96.5 44.6h-18.5v-17.8h18.5zm26 26.9H160v-20.3h18.8zm0-26.9H160v-17.8h18.8zm33.5 111.7h18.6V432h-18.6zm-7.2-60.2h-19.3v-17.9H205zm0-24.6h-19.3v-20.3H205zm0-27h-19.3V285H205zm6.6-24.2v-.1h-25.9V258h45v44.7H212v-24.3zm-52.2 130.8h-26.2v-52h-.4v-.2H79.5v-27.1h-.3v-.2H30.6v.2H19.1v6.7h.1v46.1H0v5.9h26v-52.1h46.4V357H46v31.4h.4v.2h26v27.1h.4v.1H99v25H133.2V416h19.4v45.2H99V488h6.8v-20h53.5v-13.3h.3v-45.3h-.3zm-87-27.4H53.3v-18h19zM99 409.1H79.7v-20.5H99zm0-27.2H79.7v-18.1H99zm27 52.3h-19.9V416H126zm0-25h-20v-20.6H126zm0-27.3h-19.9v-18H126zM0 442.9h18.3v18H0v6.6h18.3V488H25v-20.4h20V488h7v-51.9H0zm25.1 0h19.8v18H25.1zM458 251.4V277h-19.9v-25.5h-.3v-.1h-31v32.2h.4v.1h24v19.8H387V258h.1v-6.6h-.3v-.1h-59v26.9h-19v-26.8h-.3v-.1h-58.6v57.8h.3v.1h25.5v20.3h-25.8v57.9h.3v.1h51.7v44.5h-19.5V408h-.3v-.2h-32.2v31h25.5V459h-25.5V488h6.6v-22.5H282v-10.8h.3v-16h26.5V381h-.3v-.1h-51.8v-44.6h18.9v24.4h.3v.2h32.9v-24.7h25.8v-26.8h25.7v-31h-.3v-.2h-25.2v-20.1h45v51.1h.4v.1h58v-25.6h18.7v-.1h7.8V258H488v-6.6zM275.3 432h-18.6v-17.7h18.6zm.3-153.9v24.5h-18.9V258h45.1v20.1zm26.2 6.7v17.8h-19.3v-17.8zm0 69.3h-19.3v-17.9h19.3zm0-24.6h-19.3v-20.3h19.3zm25.8 0h-18.8v-20.3h18.8zm0-26.9h-18.8v-17.8h18.9zm7.1-17.8h18.6v17.8h-18.5zm96.6-7.9h-17.6v-18.9h17.6zm37 105.7v-46.2h.1v-6.8H408V357h-53.7v52.2h-26.5V468h53.5v20h6.8v-26.8h-53.5v-6.5h.3V416h19.4v24.8h.4v.1h33.7v-25H415v-27.3H441.4v-31.5h-.4v-.1h-25.9v-20.5h41.7v-.1h4.6v52H488v-5.8zm-106.8-19h19.8v18h-19.8zm19.8 70.5h-19.8V416h19.8zm0-25h-19.8v-20.6h19.8zm26.5 0h-19.4v-20.6h19.4zm0-27.3h-19.4v-18.1h19.4zm26.4-18.1v18h-19v-18zm53.7 79v-6.6h-52.4V488h6.8v-20.4h20.2V488h6.8v-20.4H488V461h-18.8v-18.2zM462.4 461h-20.1v-6.3h.3V443h14.3v-.1h5.5zM488 .4V0H249.6v.4h.5v29.4h25.6V34h-.4v15.9h-25.5v31h.3v.1h32.2V56.6h19.5V101h-52v57.8h.4v.1h25.4v20.4h-25.8v57.8h.3v.1h58.7v-26.9h19v26.8h.3v.1H387v-6.6h-.1v-45.4h44.4V205H407v32.2h.3v.1h31v-25.6H458v25.5h30v-6.6h-23.3V205H438v-25.5h-.3v-.1h-58v51.2h-45v-20.1h25.5v-31h-.3v-.2h-25.4v-26.7h-.3v-.1h-25.5V128h-.3v-.1h-32.9v24.5h-18.9v-44.6h52.1V50.1h-.3v-.2h-26.2V23.2h-25.6V.4h125v20.3H328V34h-.3v45.3h.3v.2h26.2v52h.4v.2H408v27.1h.3v.2H457v-.1h11.5V106H488v-5.8h-26.5v52H415v-20.5h26.3v-31.5H415V73h-.3v-.1h-26.3v-25h-.3v-.1h-33.8v24.9H335V27.5h53.5V.4h47v52.1H488v-6.7h-18.8v-18H488V21h-18.7V.4zm-212.7 74h-18.6V56.5h18.6zm156 156.2h-17.6v-18.8h17.6zM334.8 186h18.5v17.8h-18.5zm-26-26.9h18.8v20.2h-18.8zm0 26.9h18.8v17.8h-18.8zm-26.3-51.5h19.3v17.9h-19.3zm0 24.6h19.3v20.2h-19.3zm0 26.9h19.3v17.8h-19.3zm-6.6 24.3v.1h25.9v20.2h-45V186h18.8v24.3zm139.2-103.4h19.1v18h-19zm-26.7-27.3h19.4V100h-19.4zm0 27.3h19.4v18h-19.4zm-27-52.4h19.9v18.2h-19.8zm0 25h19.9v20.6h-19.8zm0 27.3h19.9v18h-19.8zm101-72.8v11.8h-19.8v-18h19.8zm0-12.9h-19.8V.4h19.9z"/></svg>