<svg xmlns="http://www.w3.org/2000/svg" viewBox="0 0 475.7 475.7"><defs><linearGradient id="a" x1="-42" x2="509.1" y1="398.5" y2="80.3" gradientUnits="userSpaceOnUse"><stop offset="0" stop-color="#d7b86d"/><stop offset=".6" stop-color="#fff6de"/><stop offset="1" stop-color="#d4bd85"/></linearGradient></defs><path fill="url(#a)" d="M438.9 0h-14L333 91.7l49.4 49.3 26.6-26.6-23-23L399.6 78l35.4 35.3-45.4 45.4-7.7 7.7-7.7-7.7-57-56.7v-.3L248 32.3 280.3 0h-14l-91.7 91.7 49.3 49.3 26.6-26.6-23-23L241 77.8l35.4 35.4-45.4 45.4-7.7 7.7-7.6-7.7-57-56.8v-.3L89.5 32.3 121.7 0h-14L16 91.7 65.3 141 92 114.4l-23-23 13.5-13.6 35.4 35.4-45.4 45.4-7.7 7.7-7.7-7.7-57-56.8v13.3l43.5 43.5L58 173 5 226 0 221.3v13l5.4 5.4 81-81 44.8-44.8L82 64.4 55.4 90.9l23 23L65 127.5 29.6 92.2l53-53 76 75.6v.3l43.5 43.5 14.4 14.4-53 53-4.9-4.8-30.5-30.5 13.6-13.5 16.9 16.9 6 6.1 26.6-26.5-15-15.1-17.6-17.6-16.7-16.6-34.2 34.2L16 250.2l49.4 49.4L91.9 273l-23-23 13.5-13.5 35.4 35.3-45.4 45.3-7.7 7.7-7.7-7.7-57-56.7v13.2l43.5 43.5L58 331.6l-53 53-4.9-4.8v13l5.4 5.4 81-81 44.8-45L82 223l-26.6 26.6 23 23L65 286.2l-35.3-35.4 53-53 76 75.6v.3l43.5 43.5 14.4 14.5-53 53-4.8-4.8-30.6-30.5 13.6-13.5 16.9 16.9 6 6.1 26.6-26.6-15-15-17.6-17.6-16.7-16.7-34.2 34.3L16 408.8l49.4 49.3 26.5-26.5-23-23L82.4 395l35.4 35.4-45.4 45.3h14l44.8-44.8L82 381.5l-26.6 26.6 23 23L65 444.7l-35.3-35.4 53-53 76 75.6v.3l43.5 43.5h13.5l-57-56.7v-.3l-69.2-69.2 32.4-32.3 20.7-20.8 16.1 16.2 4.6 4.5 14.6 14.7-13.5 13.5-5.7-5.6-17.3-17.4-26.6 26.5 44 44 5.3 5.4 81-81 44.9-44.9-49.4-49.4-26.5 26.6 23 23-13.5 13.6-35.4-35.4 53-53 76 75.6v.3l43.6 43.5 14.4 14.5-53.1 53-4.9-4.8-30.5-30.5 13.6-13.6 17 17 6 6.1 26.6-26.6-15-15-17.7-17.6-16.7-16.7-34.2 34.3-91.7 91.6 49.4 49.3 26.5-26.5-23-23L241 395l35.4 35.4-45.4 45.3h14l44.9-44.8-49.4-49.4-26.5 26.6 23 23-13.5 13.6-35.4-35.4 53-53 76 75.6v.3l43.6 43.5h13.5l-57-56.7v-.3L248 349.5l32.4-32.3 20.6-20.8 16.1 16.2 4.6 4.5 14.7 14.7-13.6 13.5-5.6-5.6-17.4-17.4-26.6 26.5 44 44 5.3 5.4 81-81 44.9-44.9-49.3-49.3-26.6 26.5 23 23-13.4 13.6-35.4-35.4 53-53 76 75.6v-13.2L406.7 191l32.3-32.3 20.7-20.7 16.1 16.1v-13l-16.6-16.6-34.3 34.2-91.7 91.7 49.4 49.3 26.6-26.6-23.1-23 13.5-13.5 35.4 35.3-45.4 45.4-7.7 7.7-7.6-7.7-57-56.8v-.2L248 190.9l32.4-32.3 20.6-20.7 16.2 16.1 4.5 4.6 14.7 14.6-13.6 13.6-5.6-5.7-17.4-17.4-26.6 26.5 44 44 5.3 5.5 81-81 45-44.9L399 64.4l-26.5 26.5 23 23-13.5 13.6-35.4-35.3 53-53 76 75.6v-13.2l-69.1-69.2zM322 226l-4.9-4.8-30.5-30.5 13.6-13.5 17 16.9 6 6.1 26.6-26.5-15-15.1-17.6-17.6-16.7-16.6-34.2 34.2-91.7 91.7 49.3 49.3 26.6-26.6-23-23 13.5-13.6 35.4 35.4L231 317l-7.7 7.7-7.6-7.7-57-56.7v-.3L89.5 191l32.3-32.3 20.7-20.7 16 16.1 4.7 4.6 14.6 14.6-13.5 13.6-5.7-5.7-17.4-17.4-26.6 26.5 44 44 5.4 5.5 81-81 44.9-44.9-49.4-49.4L214 90.9l23 23-13.5 13.6L188 92.2l53-53 76 75.6v.3l43.6 43.5L375 173zM458.8 18.7L445.3 32l30.4 30.5v13l-44-44 26.7-26.5 17.3 17.4v13zm.3 264.3l16.6 16.7v13l-16.1-16.2-20.7 20.7-32.4 32.4 69.2 69.2v13.2l-76-75.7-53 53 35.3 35.4 13.6-13.5-23-23 26.5-26.6 49.3 49.4-44.9 44.8h-14l45.4-45.4-35.3-35.3-13.6 13.5 23 23-26.6 26.6-49.3-49.3 91.7-91.7zm-.7-119.2l17.3 17.4v13l-16.9-17-13.5 13.6 30.4 30.5v13l-44-44zm.7 277.8l16.6 16.6v13L459.6 455l-20.7 20.7h-14zm-.7-119.2l17.3 17.4v13l-16.9-17-13.5 13.6 30.4 30.5v13l-44-44zM273.2 31.7L299.8 5l17.4 17.4 5.6 5.7 13.6-13.5L321.7 0h13l15 15-26.4 26.6-6.1-6-17-17L286.7 32l30.5 30.5 4.8 4.9 53-53L360.8 0h13.5l7.7 7.7 7.6-7.7h14l-81 81-5.3-5.4zm44 426.4l17.6 17.6h-13l-4.6-4.5L301 455l-20.7 20.7h-14l34.2-34.2zM6.2 41.6l-6.2-6v-13l5.7 5.6 13.5-13.5L4.6 0h13l15 15zm108.4-10l26.6-26.5 17.4 17.4 5.7 5.7 13.5-13.5L163 0h13l15.1 15-26.5 26.6-6.1-6-17-17L128.2 32l30.5 30.5 4.9 4.9 53-53L202 0h13.5l7.7 7.7L231 0h14l-81 81-5.4-5.4zM5.4 81.1L0 75.6v-13l4.9 5 53-53L43.5 0H57l7.7 7.7L72.4 0h14zM6 200.2L0 194.1v-13l5.7 5.7 13.5-13.6-14.6-14.6L0 154v-13l17.6 17.6 15 15zm0 158.6L0 352.7v-13l5.7 5.7 13.5-13.6-14.6-14.7-4.6-4.5v-13l17.6 17.6 15 15zM0 419l57 56.8H43.5L0 432.2zm0 39.2l17.6 17.6h-13L0 471.2zm158.6 0l17.6 17.6h-13l-4.6-4.6-16.2-16.2-20.7 20.7h-14l34.2-34.2z"/></svg>