<svg xmlns="http://www.w3.org/2000/svg" viewBox="0 0 488.7 488.7"><defs><linearGradient id="a" x1="-42.5" x2="530.2" y1="412.1" y2="81.5" gradientUnits="userSpaceOnUse"><stop offset="0" stop-color="#d7b86d"/><stop offset=".6" stop-color="#fff6de"/><stop offset="1" stop-color="#d4bd85"/></linearGradient></defs><path fill="url(#a)" d="M488.7 19.2V9.6L479.1 0h-9.6l6.6 6.6-33 33-12.8-12.9 20.1-20-6.6-6.7H434l6.7 6.6L425.5 22 410.2 6.6l6.6-6.6h-9.6l-6.6 6.6 20 20.1-12.8 13-33-33 6.7-6.7h-32.6l6.6 6.6-33 33-12.8-12.9 20-20-6.6-6.7h-9.6l6.6 6.6L305 22 289.6 6.6l6.6-6.6h-9.6l-6.7 6.6L300 26.7l-12.8 13-33-33 6.7-6.7h-32.6l6.6 6.6-33 33-12.8-12.9 20-20-6.6-6.7H193l6.6 6.6L184.2 22 169 6.6l6.6-6.6H166l-6.7 6.6 20.1 20.1-12.8 13-33-33 6.6-6.7h-32.5l6.6 6.6-33 33-12.8-12.9 20-20L82 0h-9.6l6.6 6.6L63.6 22 48.4 6.6 55 0h-9.6l-6.7 6.6 20.1 20.1-12.9 13-33-33L19.6 0H10L1.7 8.2 0 10v9.6l3.3-3.3 33 33-12.9 12.8L3.4 42 0 45.4V55l3.3-3.3L18.6 67 3.3 82.2 0 79v9.7l1.8 1.7 1.5 1.6 20.1-20.1 12.9 12.8-33 33-3.3-3.3v26l3.3-3.4 33 33-12.9 12.8-20-20-1.6 1.5L0 166v9.6l3.3-3.3 15.3 15.3-15.3 15.2-1.5-1.5-1.8-1.8v9.7l3.3 3.3 20.1-20.1 12.9 12.8-33 33-1.6-1.5-1.7-1.8v26l3.3-3.4 33 33-12.9 12.9-20-20.1-1.7 1.5-1.7 1.8v9.6l1.8-1.7 1.5-1.6 15.3 15.3-15.3 15.3L0 320v9.7l3.3 3.3L23.4 313l12.9 12.9-33 33-3.3-3.4v26l3.3-3.4 33 33L23.4 424l-20-20.1-3.4 3.3v9.6l3.3-3.3 15.3 15.3L3.3 444l-1.5-1.6-1.8-1.8v9.7l1.8 1.7 1.5 1.6 20.1-20 12.9 12.8-33 33L0 476v9.7l1.8 1.7 1.1 1.2h10.5L46 456.1 58.8 469l-19.7 19.7h9.7l14.8-14.9 15 14.9h9.6L68.5 469l12.8-12.9 32.6 32.6H134l32.6-32.6 12.8 12.9-19.7 19.7h9.7l14.8-14.9 15 14.9h9.6L189 469l12.8-12.9 32.6 32.6h20.1l32.6-32.6L300 469l-19.7 19.7h9.7l14.9-14.9 14.9 14.9h9.6L309.7 469l12.9-12.9 32.5 32.6h20.1l32.6-32.6 12.8 12.9-19.6 19.7h9.7l14.8-14.9 14.9 14.9h9.6L430.3 469l12.9-12.9 32.5 32.6h10.5l2.5-2.5v-9.7l-3 3-33-33 13-13 20 20.2 3-3v-9.6l-3 3-15.2-15.3 15.3-15.3 2.9 3v-9.7l-3-3-20 20.2-12.9-12.9 33-33 3 3v-25.2l-3 3-33-33 12.9-12.9 20 20 3-2.8v-9.7l-3 3-15.2-15.3 15.3-15.3 2.9 3v-9.7l-3-3-20 20.2-12.9-13 33-33 3 3v-25l-3 2.8-33-33 12.9-12.8 20 20 3-2.9V200l-3 3-15.2-15.3 15.3-15.3 2.9 2.9v-9.7l-3-2.9-20 20.1-12.9-12.8 33-33 3 2.9v-25.1l-3 3-33-33 12.9-13 20 20.1 3-2.8v-9.7l-3 3L470.6 67l15.3-15.3 2.9 3V45l-3-3-20 20.1-12.9-12.8 33-33zm-63.2 12.4l12.8 12.8-12.8 12.9-12.9-12.9zm-60.3 372.3L345 424l-12.9-12.9 33-33 33 33-13 12.9zm15.2 24.9L365.2 444l-15.3-15.3 15.3-15.3zm-135.8-25L224.4 424l-12.8-12.9 33-33 33 33-13 12.9zm15.2 25L244.6 444l-15.3-15.3 15.3-15.3zm-135.9-25L104 424 91 411.1l33-33 33 33-13 12.9zm15.3 25L124 444l-15.2-15.3 15.2-15.3zM124 91.8l20.1-20 13 12.8-33 33-33-33 12.8-12.8zM108.7 67l15.2-15.3L139.2 67 124 82.2zm135.9 25l20-20.2 13 12.9-33 33-33-33 12.8-12.9zm-15.3-25l15.3-15.3L259.8 67l-15.2 15.2zm135.9 24.9l20-20.1 13 12.8-33 33-33-33L345 71.8zM349.9 67l15.3-15.3L380.4 67l-15.2 15.2zM292 330.7l12.9-12.9 12.8 12.9-12.8 12.9zm28.1 37.8L305 383.8l-15.3-15.3 15.3-15.3zm-148.7-37.8l12.8-12.9 13 12.9-13 12.9zm28.1 37.8l-15.3 15.3-15.2-15.3 15.3-15.3zM197.1 165l-12.9 12.8-12.8-12.8 12.8-13zM169 127.3l15.2-15.3 15.3 15.3-15.3 15.3zM317.7 165L305 177.9 292 165.1l12.9-13zm-28.1-37.8l15.3-15.3 15.2 15.3-15.2 15.3zm75.6 156l-20.1 20-12.9-12.8 33-33 33 33-12.9 12.8zm15.3 24.9l-15.3 15.3-15.3-15.3 15.3-15.3zm-136-25l-20 20.2-13-13 33-33 33 33-12.8 13zm15.3 25l-15.2 15.3-15.3-15.3 15.3-15.3zm-135.9-25l-20 20.2-12.9-13 33-33 33 33-12.9 13zm15.3 25L124 323.5l-15.2-15.3 15.2-15.3zM124 212.5l20.1-20.1 13 12.9-33 33-33-33 12.8-13zm-15.2-25l15.2-15.2 15.3 15.3-15.3 15.2zm24.9 60.4l33-33 12.8 12.8-20 20.1 20 20.1-12.8 13zm37.8-37.8l12.8-12.9 13 12.9-13 12.9zm28.1 37.8l-15.3 15.3-15.2-15.3 15.3-15.3zm-15.3 24.9l13 12.9-13 12.8-12.8-12.8zm4.9-4.8l20-20.1-20-20.1 12.8-12.9 33 33-33 33zm55.5-55.5l20-20.1 13 12.9-33 33-33-33 12.8-13zm-15.3-25l15.3-15.2 15.2 15.3-15.2 15.2zm24.9 60.4l33-33 12.8 12.9-20.1 20L300 268l-12.9 12.9zM292 210l12.9-12.9 12.8 12.9L305 223zm28.1 37.8L305 263.2l-15.3-15.3 15.3-15.3zM305 272.8l12.8 12.9-12.8 12.8-12.9-12.8zm4.8-4.8l20-20.1-20-20.1 12.9-12.9 33 33-33 33zm22.5-62.7l12.9-13 20 20.2 20.2-20.1 12.8 12.9-33 33zm17.7-17.7l15.3-15.3 15.2 15.3-15.2 15.2zm15.3-25L345 182.7 332.2 170l33-33 33 33-12.9 12.8zm-25 25l-12.8 12.8-12.9-12.8 12.9-12.9zm-45 0l-12.8 12.8-12.9-12.8 12.9-12.9zm-30.5-4.9l-20.1-20-20.1 20-12.9-12.8 33-33 33 33zm-45 4.9l-12.9 12.8-12.9-12.8 12.9-12.9zm-45 0l-12.9 12.8-12.8-12.8 12.8-12.9zm-30.6-4.9l-20-20-20.2 20L91 170l33-33 33 33zm-45 4.9l-13 12.8-12.8-12.8 12.9-12.9zm15.3 60.3l-33 33-13-12.9 20.2-20.1-20.1-20.1 12.8-12.9zm-28.3 47.4L99 308.2 86.2 321l-13-12.8zm17.7 17.7l20.1 20.1 20.2-20.1 12.8 12.9-33 33-33-33zm45-4.8l12.9-12.9 12.9 12.9-12.9 12.8zm45 0l12.9-12.9 12.9 12.9-12.8 12.8zm30.6 4.8l20.2 20 20-20 13 12.9-33 33-33-33zm45-4.8l13-12.9 12.8 12.9-12.8 12.8zm45 0l13-12.9 12.8 12.9-12.8 12.8zm30.7 4.8l20 20.1 20.2-20.1 12.8 12.9-33 33-33-33zm45-4.8l12.9-12.9 12.9 12.9L403 321zm-15.3-60.3l33-33 12.9 12.8-20.1 20.1 20 20.1-12.8 13zm28.2-47.5l-12.9-12.8 12.9-12.9 12.9 12.9zm-28.1-73.1l33-33 12.8 12.8-20 20.1 20 20.1-12.8 12.9zm-19.3 0l-33 33-13-12.9 20.2-20.1-20.1-20.1 12.9-12.9zm-50.7-25L292 89.5l12.9-12.9 12.8 12.9zm-4.9 4.9l-20.1 20 20.1 20.2-12.9 12.8-33-33 33-33zm-65.1 20l-33 33-12.9-12.8 20.1-20.1-20.1-20.1 12.9-12.9zm-50.7-24.9l-12.8-12.8 12.8-12.9 13 12.9zm-4.8 4.9l-20.1 20 20 20.2-12.8 12.8-33-33 33-33zm-65.2 20l-33 33-12.7-12.8 20-20.1-20-20.1 12.8-13zm-50.6-24.9L50.8 89.5l12.8-12.9 12.9 12.9zm15.3 25l-15.3 15.2-15.2-15.2L63.6 112zM76.5 165l-12.9 12.8-12.8-12.8 12.8-13zm0 45L63.6 223l-12.8-13 12.8-12.8zm2.4 37.8L63.6 263 48.4 248l15.2-15.3zm-2.4 37.8l-12.9 12.8-12.8-12.8 12.8-12.9zm0 45l-12.9 12.9-12.8-13 12.8-12.8zm2.4 37.8l-15.3 15.3-15.2-15.3 15.2-15.3zm-2.4 37.8L63.6 419l-12.8-12.8 12.8-12.9zm-8-17.7l20.1-20.1-20.1-20.1 12.9-13 33 33-33 33zm65.1-20.1l33-33 12.9 12.8-20.1 20.1 20.1 20.1-12.9 12.9zm50.7 24.9l12.9 12.9-13 12.8-12.8-12.8zm4.8-4.8l20.1-20.1-20-20.1 12.8-13 33 33-33 33zm65.1-20.1l33-33 12.8 12.9-20.1 20 20.1 20.2-12.9 12.8zm50.7 24.9l12.9 12.9-12.9 12.8-12.9-12.8zm4.8-4.8l20.1-20.1-20-20.1 12.8-13 33 33-33 33zm65.2-20.1l33-33 12.8 12.8-20 20.1 20 20.1-12.8 12.9zm50.6 24.9l12.9 12.9-12.9 12.8-12.9-12.8zm-15.3-25l15.3-15.2 15.2 15.3-15.2 15.3zm2.4-37.7l12.9-12.9 12.8 12.9-12.8 12.9zm0-45l12.9-12.9 12.8 12.9-12.8 12.9zm-2.4-37.8l15.3-15.3 15.3 15.3-15.3 15.3zm2.4-37.8l12.9-12.9 12.8 12.9-12.8 12.9zm0-45l12.9-12.9 12.8 12.9-12.8 12.8zm-2.4-37.8l15.3-15.3 15.3 15.3-15.3 15.3zm2.4-37.8l12.9-12.9 12.8 12.9-12.8 12.8zm3.2-22.5L403 79.8 390.1 67 403 54zm-50.6-50.7l33 33-13 12.8-20-20.1L345 62l-12.9-12.7zM327.4 54L340.3 67l-13 12.8L314.6 67zm-22.5-22.5l12.8 12.8L305 57.3 292 44.4zM295.2 67l-12.8 12.8-13-12.8 13-12.9zm-50.6-50.7l33 33-13 12.8-20-20.1-20.1 20.1-13-12.8zM206.8 54L219.6 67l-12.8 12.8L193.9 67zm-22.6-22.5l13 12.8-13 12.9-12.8-12.9zM174.6 67l-12.9 12.8L149 67l12.8-12.9zm-50.7-50.7l33 33L144.1 62 123.9 42l-20 20L91 49.4zM86.1 54L99 67 86.2 79.8 73.2 67zM63.7 31.6l12.9 12.8-12.9 12.9-12.8-12.9zM28.2 67l13-13L54 67 41.1 79.8zM13 127.3l33-33L58.9 107l-20.1 20.1 20 20.1-12.8 13zm15.3 60.3L41 174.7 54 187.6l-12.9 12.8zM13 247.9l33-33 12.9 12.8-20.1 20.1 20 20.2L46 280.8zm15.3 60.3L41 295.3 54 308.2 41.1 321zM13 368.5l33-33 12.9 12.8-20.1 20.1 20 20.2L46 401.4zm28.1 73.2l-12.9-13 13-12.8L54 428.8zm22.6 22.5l-13-12.9 13-12.9 12.8 13zm9.6-35.4l12.9-12.9L99 428.8l-12.8 12.9zm50.7 50.7l-33-33 12.8-13 20.1 20.2 20.1-20.1 13 12.9zm37.8-37.8l-12.9-13 12.9-12.8 12.8 12.9zm22.5 22.5l-12.9-12.9 12.9-12.9 12.8 13zm9.6-35.4l12.9-12.9 12.9 12.9-13 12.9zm50.7 50.7l-33-33 12.9-13 20 20.2 20.2-20.1 12.8 12.9zm37.8-37.8l-12.9-13 12.9-12.8 12.8 12.9zm22.5 22.5L292 451.3l12.9-12.9 12.8 13zm9.6-35.4l12.9-12.9 12.9 12.9-12.9 12.9zm50.7 50.7l-33-33 12.9-13 20 20.2 20.2-20.1 12.8 12.9zm37.8-37.8l-12.9-13L403 416l12.9 12.9zm22.5 22.5l-12.9-12.9 13-12.9 12.8 13zm35.4-35.4L448 441.7l-12.9-13L448 416zm15.3-60.3l-33 33-12.9-13 20.1-20-20.1-20.1 12.9-12.9zm-15.3-60.3L448 321l-12.9-12.9 12.9-12.8zm15.3-60.3l-33 33-13-12.9 20.2-20.1-20.1-20.1 12.9-12.9zm-15.3-60.3L448 200.4l-12.9-12.8 12.9-12.9zm15.3-60.3l-33 33-12.9-13 20.1-20-20.1-20.2 12.9-12.8zM460.9 67L448 79.8 435.1 67 448 54z"/></svg>